<?xml version="1.0" encoding="utf-8"?>
<svg xmlns="http://www.w3.org/2000/svg" viewBox="0 0 1792 1024" xmlns:bx="https://boxy-svg.com">
  <g id="object-0">
    <g transform="matrix(4.71562, 0, 0, 4.71562, -757.66449, -682.800842)">
      <text style="fill: rgb(51, 51, 51); font-family: &quot;DM Sans&quot;; font-size: 40px; white-space: pre;" x="202.491" y="266.431">vector</text>
      <g transform="matrix(1, 0, 0, 1, -40.047264, 133.518265)">
        <rect x="215.377" y="111.284" width="20.332" height="24.236" style="stroke: rgb(51, 51, 51); stroke-width: 0.25px; fill: rgb(255, 255, 255);"/>
        <rect x="220.183" y="107.625" width="11.096" height="29.953" style="fill: rgb(255, 255, 255); stroke: rgb(255, 255, 255);"/>
        <g transform="matrix(1, 0, 0, 1, -0.305008, -0.164009)">
          <g transform="matrix(1, 0, 0, 1, 1, -0.017998)">
            <ellipse style="fill: rgb(216, 216, 216);" cx="220.792" cy="116.437" rx="2.5" ry="2.5"/>
            <ellipse style="fill: rgb(216, 216, 216); stroke-width: 1;" cx="220.792" cy="123.584" rx="2.5" ry="2.5"/>
            <ellipse style="fill: rgb(216, 216, 216); stroke-width: 1;" cx="220.792" cy="130.731" rx="2.5" ry="2.5"/>
          </g>
          <g transform="matrix(1, 0, 0, 1, 1, 0.017998)">
            <ellipse style="stroke-width: 1; fill: rgb(43, 43, 43);" cx="228.904" cy="116.401" rx="2.5" ry="2.5"/>
            <ellipse style="fill: rgb(216, 216, 216); stroke-width: 1;" cx="228.904" cy="123.548" rx="2.5" ry="2.5"/>
            <ellipse style="fill: rgb(216, 216, 216); stroke-width: 1;" cx="228.904" cy="130.695" rx="2.5" ry="2.5"/>
          </g>
        </g>
      </g>
    </g>
    <g>
      <rect x="896" width="896" height="1024" style="fill: rgb(248, 248, 248);"/>
    </g>
    <text style="fill: rgb(51, 51, 51); font-family: &quot;DM Sans&quot;; font-size: 60px; font-weight: 500; white-space: pre;" x="966.007" y="164.669">Recover More Margin From <tspan x="966.0070190429688" dy="1em">​</tspan>Clearance Inventory</text>
    <text style="fill: rgb(4, 66, 191); font-family: &quot;DM Sans&quot;; font-size: 28px; font-weight: 500; white-space: pre;" x="967.602" y="66.331">VECTOR CLEARANCE PLAYBOOK</text>
    <text style="fill: rgb(51, 51, 51); font-family: &quot;DM Sans&quot;; font-size: 32px; white-space: pre;" x="972.815" y="296.887">Use predictive offer intelligence to maximize margin <tspan x="972.8150024414062" dy="1.3em">​</tspan>retention while accelerating inventory liquidation.</text>
    <text style="fill: rgb(51, 51, 51); font-family: &quot;DM Sans&quot;; font-size: 30px; white-space: pre;" x="973.487" y="442.934">Traditional Clearance</text>
    <text style="fill: rgb(51, 51, 51); font-family: &quot;DM Sans&quot;; font-size: 30px; white-space: pre; stroke-width: 1;" x="1415.24" y="442.934">I Want That! Clearance</text>
    <g transform="matrix(0.45016, 0, 0, 0.332267, 103.028297, 326.71051)" style="">
      <path d="M 1794.88 575.453 C 1781.62 578.106 1767.55 576.442 1768.36 608.274 L 1768.36 808.922 C 1768.36 824.841 1774.4 839.966 1797.66 835.253 L 2121.2 838.106 C 2145.06 839.633 2148.73 835.292 2163.65 818.889 L 2244.03 729.905 C 2257.95 713.324 2254.61 691.837 2243.28 678.762 L 2163.65 588.72 C 2147.46 571.59 2140.78 576.459 2128.51 575.455 L 1794.88 575.453 Z" style="stroke-width: 2px; stroke: rgb(201, 201, 201); transform-box: fill-box; transform-origin: 50% 50%;" fill="#fff" stroke-dashoffset="3.003" stroke-linecap="round" stroke-linejoin="round" transform="matrix(-0.011152, -0.999938, 0.999938, -0.011152, -0.000112, -0.000055)"/>
      <path d="M 2027.2 505.001 C 2027.28 519.658 2011.1 528.902 1998.09 521.64 C 1991.98 518.234 1988.23 511.875 1988.27 505.001 C 1988.19 490.344 2004.36 481.1 2017.38 488.363 C 2023.48 491.768 2027.23 498.128 2027.2 505.001 Z" style="stroke-width: 2.653; stroke: rgb(202, 202, 202); transform-box: fill-box; transform-origin: 50% 50%;" fill="#fff" stroke-dashoffset="3.003" stroke-linecap="round" stroke-linejoin="round" transform="matrix(-0.011152, -0.999938, 0.999938, -0.011152, 0.000001, 0.000089)"/>
    </g>
    <g>
      <g transform="matrix(0.078149, 0, 0, 0.088395, 1091.835327, 502.201752)" style="">
        <path transform="matrix(2.4113 0 0 2.4113 -580.63 -564.52)" d="m399.99 234.11c-51.824 2.4e-4 -93.835 42.012-93.835 93.835-6.5e-4 51.824 42.011 93.837 93.835 93.837 51.824-2.3e-4 93.836-42.013 93.835-93.837-2.4e-4 -51.824-42.012-93.835-93.835-93.835zm84.258 185.78c-22.985 21.114-53.047 32.853-84.258 32.901-31.166-0.0566-61.183-11.769-84.151-32.835-46.6 30.851-74.96 85.053-75.04 143.42 0.0313 0.83786 0.0686 1.6754 0.11151 2.5127h318.18c0.0436-0.83725 0.0813-1.6748 0.11311-2.5127-0.0349-58.365-28.354-112.59-74.931-143.48z" color="#000000" color-rendering="auto" image-rendering="auto" mask="url(#a)" shape-rendering="auto" solid-color="#000000" stroke-width="0" style="isolation: auto; mix-blend-mode: normal; fill: rgb(235, 235, 235);"/>
      </g>
      <g transform="matrix(0.078149, 0, 0, 0.088395, 1237.471558, 502.201782)" style="">
        <path transform="matrix(2.4113 0 0 2.4113 -580.63 -564.52)" d="m399.99 234.11c-51.824 2.4e-4 -93.835 42.012-93.835 93.835-6.5e-4 51.824 42.011 93.837 93.835 93.837 51.824-2.3e-4 93.836-42.013 93.835-93.837-2.4e-4 -51.824-42.012-93.835-93.835-93.835zm84.258 185.78c-22.985 21.114-53.047 32.853-84.258 32.901-31.166-0.0566-61.183-11.769-84.151-32.835-46.6 30.851-74.96 85.053-75.04 143.42 0.0313 0.83786 0.0686 1.6754 0.11151 2.5127h318.18c0.0436-0.83725 0.0813-1.6748 0.11311-2.5127-0.0349-58.365-28.354-112.59-74.931-143.48z" color="#000000" color-rendering="auto" image-rendering="auto" mask="url(#mask-1)" shape-rendering="auto" solid-color="#000000" stroke-width="0" style="isolation: auto; mix-blend-mode: normal; fill: rgb(235, 235, 235);"/>
      </g>
      <g transform="matrix(0.078149, 0, 0, 0.088395, 1164.653442, 502.201782)" style="">
        <path transform="matrix(2.4113 0 0 2.4113 -580.63 -564.52)" d="m399.99 234.11c-51.824 2.4e-4 -93.835 42.012-93.835 93.835-6.5e-4 51.824 42.011 93.837 93.835 93.837 51.824-2.3e-4 93.836-42.013 93.835-93.837-2.4e-4 -51.824-42.012-93.835-93.835-93.835zm84.258 185.78c-22.985 21.114-53.047 32.853-84.258 32.901-31.166-0.0566-61.183-11.769-84.151-32.835-46.6 30.851-74.96 85.053-75.04 143.42 0.0313 0.83786 0.0686 1.6754 0.11151 2.5127h318.18c0.0436-0.83725 0.0813-1.6748 0.11311-2.5127-0.0349-58.365-28.354-112.59-74.931-143.48z" color="#000000" color-rendering="auto" image-rendering="auto" mask="url(#mask-2)" shape-rendering="auto" solid-color="#000000" stroke-width="0" style="isolation: auto; mix-blend-mode: normal; fill: rgb(235, 235, 235);"/>
      </g>
    </g>
    <g transform="matrix(0.078149, 0, 0, 0.088395, 1536.138062, 495.983551)" style="">
      <path transform="matrix(2.4113 0 0 2.4113 -580.63 -564.52)" d="m399.99 234.11c-51.824 2.4e-4 -93.835 42.012-93.835 93.835-6.5e-4 51.824 42.011 93.837 93.835 93.837 51.824-2.3e-4 93.836-42.013 93.835-93.837-2.4e-4 -51.824-42.012-93.835-93.835-93.835zm84.258 185.78c-22.985 21.114-53.047 32.853-84.258 32.901-31.166-0.0566-61.183-11.769-84.151-32.835-46.6 30.851-74.96 85.053-75.04 143.42 0.0313 0.83786 0.0686 1.6754 0.11151 2.5127h318.18c0.0436-0.83725 0.0813-1.6748 0.11311-2.5127-0.0349-58.365-28.354-112.59-74.931-143.48z" color="#000000" color-rendering="auto" image-rendering="auto" mask="url(#mask-3)" shape-rendering="auto" solid-color="#000000" style="isolation: auto; mix-blend-mode: normal; fill: rgb(235, 235, 235); stroke: rgb(186, 218, 85); stroke-width: 9.96047px;"/>
    </g>
    <g transform="matrix(0.078149, 0, 0, 0.088395, 1681.774292, 495.983551)" style="">
      <path transform="matrix(2.4113 0 0 2.4113 -580.63 -564.52)" d="m399.99 234.11c-51.824 2.4e-4 -93.835 42.012-93.835 93.835-6.5e-4 51.824 42.011 93.837 93.835 93.837 51.824-2.3e-4 93.836-42.013 93.835-93.837-2.4e-4 -51.824-42.012-93.835-93.835-93.835zm84.258 185.78c-22.985 21.114-53.047 32.853-84.258 32.901-31.166-0.0566-61.183-11.769-84.151-32.835-46.6 30.851-74.96 85.053-75.04 143.42 0.0313 0.83786 0.0686 1.6754 0.11151 2.5127h318.18c0.0436-0.83725 0.0813-1.6748 0.11311-2.5127-0.0349-58.365-28.354-112.59-74.931-143.48z" color="#000000" color-rendering="auto" image-rendering="auto" mask="url(#mask-4)" shape-rendering="auto" solid-color="#000000" style="isolation: auto; mix-blend-mode: normal; fill: rgb(235, 235, 235); stroke: rgb(186, 218, 85); stroke-width: 9.96047px;"/>
    </g>
    <g transform="matrix(0.078149, 0, 0, 0.088395, 1608.956177, 495.983551)" style="">
      <path transform="matrix(2.4113 0 0 2.4113 -580.63 -564.52)" d="m399.99 234.11c-51.824 2.4e-4 -93.835 42.012-93.835 93.835-6.5e-4 51.824 42.011 93.837 93.835 93.837 51.824-2.3e-4 93.836-42.013 93.835-93.837-2.4e-4 -51.824-42.012-93.835-93.835-93.835zm84.258 185.78c-22.985 21.114-53.047 32.853-84.258 32.901-31.166-0.0566-61.183-11.769-84.151-32.835-46.6 30.851-74.96 85.053-75.04 143.42 0.0313 0.83786 0.0686 1.6754 0.11151 2.5127h318.18c0.0436-0.83725 0.0813-1.6748 0.11311-2.5127-0.0349-58.365-28.354-112.59-74.931-143.48z" color="#000000" color-rendering="auto" image-rendering="auto" mask="url(#mask-5)" shape-rendering="auto" solid-color="#000000" style="isolation: auto; mix-blend-mode: normal; fill: rgb(235, 235, 235); stroke: rgb(186, 218, 85); stroke-width: 9.96047px;"/>
    </g>
    <text style="fill: rgb(51, 51, 51); font-family: &quot;DM Sans&quot;; font-size: 34px; font-weight: 600; white-space: pre;" x="977.281" y="592.222">70%</text>
    <text style="fill: rgb(51, 51, 51); font-family: &quot;DM Sans&quot;; font-size: 28px; white-space: pre;" x="975.911" y="551.157">up to</text>
    <text style="fill: rgb(51, 51, 51); font-family: &quot;DM Sans&quot;; font-size: 28px; white-space: pre;" x="989.918" y="626.259">off</text>
    <g transform="matrix(0.45016, 0, 0, 0.332267, 547.363831, 323.670929)" style="">
      <path d="M 1794.88 575.453 C 1781.62 578.106 1767.55 576.442 1768.36 608.274 L 1768.36 808.922 C 1768.36 824.841 1774.4 839.966 1797.66 835.253 L 2121.2 838.106 C 2145.06 839.633 2148.73 835.292 2163.65 818.889 L 2244.03 729.905 C 2257.95 713.324 2254.61 691.837 2243.28 678.762 L 2163.65 588.72 C 2147.46 571.59 2140.78 576.459 2128.51 575.455 L 1794.88 575.453 Z" style="stroke-width: 2px; stroke: rgb(201, 201, 201); transform-box: fill-box; transform-origin: 50% 50%;" fill="#fff" stroke-dashoffset="3.003" stroke-linecap="round" stroke-linejoin="round" transform="matrix(-0.011152, -0.999938, 0.999938, -0.011152, -0.000112, -0.000055)"/>
      <path d="M 2027.2 505.001 C 2027.28 519.658 2011.1 528.902 1998.09 521.64 C 1991.98 518.234 1988.23 511.875 1988.27 505.001 C 1988.19 490.344 2004.36 481.1 2017.38 488.363 C 2023.48 491.768 2027.23 498.128 2027.2 505.001 Z" style="stroke-width: 2.653; stroke: rgb(202, 202, 202); transform-box: fill-box; transform-origin: 50% 50%;" fill="#fff" stroke-dashoffset="3.003" stroke-linecap="round" stroke-linejoin="round" transform="matrix(-0.011152, -0.999938, 0.999938, -0.011152, 0.000001, 0.000089)"/>
    </g>
    <text style="fill: rgb(51, 51, 51); font-family: &quot;DM Sans&quot;; font-size: 42px; font-weight: 600; white-space: pre;" x="1436.97" y="584.724">%</text>
    <g transform="matrix(0.166316, 0, 0, 0.166316, 1108.038818, 414.257172)">
      <path d="M 2252.31 937.743 C 2252.31 798.888 2101.99 712.103 1981.74 781.531 C 1925.93 813.752 1891.55 873.3 1891.55 937.743 C 1891.55 1076.6 2041.87 1163.38 2162.12 1093.95 C 2217.93 1061.73 2252.31 1002.19 2252.31 937.743" fill="none" stroke="#b30000" style="stroke-width: 9;"/>
      <path d="M 1945.71 812.141 L 2200.71 1067.14" stroke="#b30000" style="stroke-width: 9;"/>
    </g>
    <g>
      <text style="fill: rgb(51, 51, 51); font-family: &quot;DM Sans&quot;; font-size: 28px; white-space: pre;" x="1092.05" y="617.784">70%</text>
      <text style="fill: rgb(51, 51, 51); font-family: &quot;DM Sans&quot;; font-size: 28px; white-space: pre;" x="1168.75" y="617.784">70%</text>
      <text style="fill: rgb(51, 51, 51); font-family: &quot;DM Sans&quot;; font-size: 28px; white-space: pre;" x="1245.45" y="617.783">70%</text>
    </g>
    <g>
      <text style="fill: rgb(51, 51, 51); font-family: &quot;DM Sans&quot;; font-size: 28px; white-space: pre; stroke-width: 1;" x="1539.13" y="613.792">$72</text>
      <text style="fill: rgb(51, 51, 51); font-family: &quot;DM Sans&quot;; font-size: 28px; white-space: pre; stroke-width: 1;" x="1613.1" y="613.792">$57</text>
      <text style="fill: rgb(51, 51, 51); font-family: &quot;DM Sans&quot;; font-size: 28px; white-space: pre; stroke-width: 1;" x="1688.3" y="613.791">$70</text>
    </g>
    <rect x="920.708" y="647.74" width="407.06" height="72.563" style="fill: rgb(238, 238, 238); fill-opacity: 0.74;" rx="17.191" ry="17.191"/>
    <g transform="matrix(0.138808, 0, 0, 0.138808, 638.736816, 625.15741)">
      <circle cx="2187.37" cy="424.02" r="108.063" fill="#eb2323" style="stroke-width: 0.639;"/>
      <circle cx="2187.37" cy="419.913" r="108.063" style="stroke-width: 0.639; fill: rgb(188, 3, 3);"/>
      <path d="M 2123.85 373.978 L 2123.85 377.81 L 2169.79 423.746 L 2123.85 465.848 L 2123.85 469.68 L 2141.43 487.258 L 2187.37 441.324 L 2233.3 487.258 L 2250.88 469.68 L 2250.88 465.848 L 2204.95 423.746 L 2250.88 377.81 L 2250.88 373.978 L 2187.37 406.168 L 2123.85 373.978 Z" color="#000000" color-rendering="auto" fill-rule="evenodd" image-rendering="auto" shape-rendering="auto" solid-color="#000000" style="isolation: auto; mix-blend-mode: normal; text-decoration-color: rgb(0, 0, 0); text-decoration-line: none; text-decoration-style: solid; text-indent: 0px; text-transform: none; white-space: normal; stroke-width: 0.639;" fill="#e9e9e9"/>
      <path d="M 2141.43 356.4 L 2123.85 373.98 L 2169.79 419.915 L 2166.61 423.095 L 2123.85 465.85 L 2141.43 483.427 L 2187.36 437.493 L 2233.3 483.427 L 2250.88 465.85 L 2208.12 423.095 L 2204.94 419.915 L 2250.88 373.98 L 2233.3 356.4 L 2233.3 356.404 L 2224.51 365.194 L 2187.37 402.338 L 2150.22 365.194 L 2141.43 356.404 L 2141.43 356.4 L 2141.43 356.4 Z" color="#000000" color-rendering="auto" fill-rule="evenodd" image-rendering="auto" shape-rendering="auto" solid-color="#000000" style="isolation: auto; mix-blend-mode: normal; text-decoration-color: rgb(0, 0, 0); text-decoration-line: none; text-decoration-style: solid; text-indent: 0px; text-transform: none; white-space: normal; stroke-width: 0px;" fill="#fff"/>
    </g>
    <rect x="1368.73" y="647.74" width="407.06" height="72.563" style="fill: rgb(238, 238, 238); fill-opacity: 0.74; stroke-width: 1;" rx="17.191" ry="17.191"/>
    <g transform="matrix(0.087575, 0, 0, 0.087575, 1212.521606, 613.893188)">
      <g transform="matrix(0.802974, 0, 0, 0.802974, 1804.38269, 571.959534)">
        <circle cx="337.29" cy="289.91" r="213.31" style="fill: rgb(58, 139, 58);"/>
        <circle cx="337.29" cy="289.91" r="213.31" style="fill: rgb(58, 139, 58);"/>
      </g>
      <g transform="matrix(0.832122, 0, 0, 0.957145, 1863.608398, 572.545715)">
        <path d="m129.52 253.73c71.31 73.708 89.574 84.096 89.574 84.096l153.99-183.05" fill="none" stroke="#f1fcf1" stroke-width="67.15px"/>
      </g>
    </g>
    <text style="fill: rgb(51, 51, 51); font-family: &quot;DM Sans&quot;; font-size: 28px; white-space: pre; text-anchor: middle;" transform="matrix(1, 0, 0, 1, -725.313904, 21.566149)"><tspan x="1867.59" y="657.419">Same Discount for All<tspan x="1867.5899658203125" dy="1em">​</tspan>Focus on Size of Discount</tspan></text>
    <text style="fill: rgb(51, 51, 51); font-family: &quot;DM Sans&quot;; font-size: 28px; white-space: pre; text-anchor: middle;" transform="matrix(1, 0, 0, 1, -275.826538, 22.416775)"><tspan x="1867.59" y="657.419">Customer Specific<tspan x="1867.5899658203125" dy="1em">​</tspan>Focus on Price Point Value</tspan></text>
    <text style="fill: rgb(51, 51, 51); font-family: &quot;DM Sans&quot;; font-size: 38px; font-weight: 500; white-space: pre;" x="942.662" y="857.33">Smarter Clearance. Higher Margins. Faster Results</text>
    <text style="fill: rgb(51, 51, 51); font-family: &quot;DM Sans&quot;; font-size: 28px; white-space: pre;" x="925.469" y="908.82">I Want That! turns discontinued inventory into profitable outcomes.</text>
    <g>
      <g transform="matrix(0.116614, 0, 0, 0.116614, -67.067619, 813.071228)">
        <g transform="matrix(3.212531, 0, 0, 3.212531, 7321.842773, 4958.439941)" fill="#004557" stroke-width="14.761">
          <g transform="translate(2.276 18.777)" stroke-width="14.761">
            <g transform="translate(7.8902 102.57)">
              <g transform="translate(23.671 -27.616)">
                <path d="m-1901.4-1303.1c-12.742 0-24.965 5.0629-33.975 14.073s-14.073 21.232-14.073 33.975c0 12.742 5.0629 24.965 14.073 33.975 9.0102 9.0103 21.233 14.073 33.975 14.073s24.965-5.0628 33.975-14.073c9.0102-9.0102 14.073-21.233 14.073-33.975s-5.0629-24.964-14.073-33.975-21.233-14.073-33.975-14.073zm-2.6988 4.271v24.954c-7.4234-0.239-14.891-1.3939-22.42-3.4846 1.2972-3.3042 2.8808-6.3638 4.7244-9.0795 4.9023-7.2225 11.164-11.47 17.695-12.39zm5.4398 0c6.5155 0.9321 12.761 5.1774 17.653 12.384 1.8567 2.7352 3.4502 5.8188 4.7525 9.1506-7.4387 2.0653-14.901 3.2202-22.406 3.431zm-21.418 3.968c-1.832 1.7864-3.5405 3.8365-5.094 6.1251-2.0907 3.0802-3.8584 6.5116-5.2815 10.194-2.1763-0.6964-4.3574-1.4656-6.5447-2.3186 1.3528-1.866 2.8558-3.6358 4.5064-5.2864 3.637-3.637 7.8456-6.5701 12.414-8.7136zm37.352 0c4.5686 2.1435 8.7775 5.0764 12.414 8.7136 1.6654 1.6652 3.1802 3.4519 4.5423 5.3364-2.1825 0.8602-4.3665 1.6378-6.5522 2.3403-1.4281-3.7092-3.2055-7.165-5.3099-10.265-1.5535-2.2888-3.2624-4.3385-5.0947-6.1251zm-57.23 18.672c2.5964 1.0376 5.1908 1.9698 7.783 2.7973-1.3028 4.5825-2.111 9.451-2.3881 14.443h-10.633c0.5397-6.0768 2.3349-11.943 5.238-17.24zm77.136 0.051c2.8868 5.2835 4.672 11.132 5.21 17.189h-10.633c-0.2758-4.9641-1.0756-9.8066-2.3657-14.367 2.6037-0.8341 5.1996-1.7767 7.7886-2.8224zm-65.434 3.9245c8.0822 2.2538 16.139 3.4866 24.154 3.7277v9.5372h-26.372c0.2747-4.5964 1.0311-9.0713 2.2188-13.265zm53.725 0.071c1.1761 4.1729 1.9243 8.6235 2.1977 13.194h-26.329v-9.5238c8.0958-0.212 16.145-1.4441 24.132-3.67zm-70.793 19.106h10.682c0.1628 5.6414 1.0009 11.152 2.4641 16.303-2.6129 0.8082-5.219 1.7186-7.8173 2.7395-3.1773-5.8214-5.0201-12.327-5.3288-19.042zm14.763 0h26.458v11.77c-8.0988 0.1238-16.152 1.261-24.143 3.3989-1.3544-4.7705-2.152-9.905-2.3151-15.169zm31.898 0h26.415c-0.1702 5.4874-1.0296 10.833-2.4902 15.773-8.0049-2.3022-15.985-3.6074-23.925-3.9337zm30.497 0h10.682c-0.3216 6.9953-2.3064 13.764-5.7321 19.768-2.5383-1.0318-5.0749-1.9613-7.6092-2.7924 1.5838-5.342 2.4901-11.088 2.6593-16.976zm-35.937 17.164v24.592c-6.5308-0.9199-12.793-5.1674-17.695-12.39-1.8378-2.7075-3.4175-5.7568-4.7125-9.0494 7.4386-1.977 14.902-3.0308 22.408-3.1529zm5.4398 0.075c7.3288 0.3227 14.702 1.5347 22.134 3.6616-1.2502 3.0703-2.752 5.9195-4.4811 8.4668-4.8918 7.2069-11.138 11.452-17.653 12.384zm-31.796 4.2182c1.4238 3.6848 3.1922 7.1189 5.2844 10.201 1.554 2.2892 3.2629 4.3391 5.0954 6.1258-4.5688-2.1435-8.7779-5.0769-12.415-8.7142-1.6645-1.6645-3.1792-3.4501-4.5408-5.3336 2.1905-0.8385 4.3823-1.5997 6.5762-2.2793zm57.852 0.653c2.1083 0.6922 4.2215 1.4578 6.3401 2.2967-1.2318 1.6376-2.581 3.1973-4.0469 4.6632-3.6372 3.6373-7.8462 6.5707-12.415 8.7142 1.8327-1.7867 3.5416-3.8366 5.0954-6.1258 1.9681-2.8993 3.6489-6.1107 5.0266-9.5483z" color="#000000" color-rendering="auto" dominant-baseline="auto" enable-background="accumulate" image-rendering="auto" shape-rendering="auto" solid-color="#000000" style="font-feature-settings: normal; font-variant-alternates: normal; font-variant-caps: normal; font-variant-ligatures: normal; font-variant-numeric: normal; font-variant-position: normal; isolation: auto; mix-blend-mode: normal; text-decoration-color: rgb(0, 0, 0); text-decoration-line: none; text-decoration-style: solid; text-indent: 0px; text-orientation: mixed; text-transform: none; white-space: normal; fill: rgb(4, 66, 191); stroke-width: 4.04665px;"/>
              </g>
            </g>
          </g>
        </g>
      </g>
      <text style="fill: rgb(51, 51, 51); font-family: &quot;DM Sans&quot;; font-size: 32px; white-space: pre;" x="138.428" y="967.386">useiwantthat.com</text>
    </g>
  </g>
  <defs>
    <style bx:fonts="DM Sans">@import url(https://fonts.googleapis.com/css2?family=DM+Sans%3Aital%2Cwght%400%2C100..1000%3B1%2C100..1000&amp;display=swap);</style>
    <mask id="a" maskUnits="userSpaceOnUse">
      <circle cx="400" cy="400" r="400" color="#000000" color-rendering="auto" fill="#fff" fill-rule="evenodd" image-rendering="auto" shape-rendering="auto" solid-color="#000000" stroke-width="0" style="isolation:auto;mix-blend-mode:normal"/>
    </mask>
    <mask id="mask-1" maskUnits="userSpaceOnUse">
      <circle cx="400" cy="400" r="400" color="#000000" color-rendering="auto" fill="#fff" fill-rule="evenodd" image-rendering="auto" shape-rendering="auto" solid-color="#000000" stroke-width="0" style="isolation:auto;mix-blend-mode:normal"/>
    </mask>
    <mask id="mask-2" maskUnits="userSpaceOnUse">
      <circle cx="400" cy="400" r="400" color="#000000" color-rendering="auto" fill="#fff" fill-rule="evenodd" image-rendering="auto" shape-rendering="auto" solid-color="#000000" stroke-width="0" style="isolation:auto;mix-blend-mode:normal"/>
    </mask>
    <mask id="mask-3" maskUnits="userSpaceOnUse">
      <circle cx="400" cy="400" r="400" color="#000000" color-rendering="auto" fill="#fff" fill-rule="evenodd" image-rendering="auto" shape-rendering="auto" solid-color="#000000" stroke-width="0" style="isolation:auto;mix-blend-mode:normal"/>
    </mask>
    <mask id="mask-4" maskUnits="userSpaceOnUse">
      <circle cx="400" cy="400" r="400" color="#000000" color-rendering="auto" fill="#fff" fill-rule="evenodd" image-rendering="auto" shape-rendering="auto" solid-color="#000000" stroke-width="0" style="isolation:auto;mix-blend-mode:normal"/>
    </mask>
    <mask id="mask-5" maskUnits="userSpaceOnUse">
      <circle cx="400" cy="400" r="400" color="#000000" color-rendering="auto" fill="#fff" fill-rule="evenodd" image-rendering="auto" shape-rendering="auto" solid-color="#000000" stroke-width="0" style="isolation:auto;mix-blend-mode:normal"/>
    </mask>
    <bx:export>
      <bx:file format="png" href="#object-0" path="vector-clearance-playbook.png"/>
    </bx:export>
  </defs>
</svg>