<?xml version="1.0" encoding="utf-8"?>
<svg xmlns="http://www.w3.org/2000/svg" viewBox="826.0749 50.1175 600 600" width="600px" height="600px"><g transform="matrix(1, 0, 0, 1, 783.14990234375, 117.75648498535156)" id="object-0"><ellipse style="stroke: rgb(0, 0, 0);" cx="342.925" cy="232.361" rx="300" ry="300"/><ellipse style="fill: rgb(255, 255, 255); stroke: rgb(187, 184, 184); stroke-width: 3px;" cx="342.925" cy="232.361" rx="295" ry="295"/><g transform="matrix(1.807401, 0, 0, 1.807401, 82.658859, -27.912258)"><path d="m26.033 215.13c-4.2002-10.689-15.897-65.782-15.891-74.848 0.0039-5.8278 1.9247-19.951 4.0758-29.969 2.645-12.318 9.065-38.118 9.7681-39.255 0.59894-0.96838 3.6153-0.4713 13.214 2.1776 38.996 10.761 74.76 26.912 88.917 40.154 4.0143 3.7549 5.7767 4.6558 10.859 5.551 9.0446 1.5932 19.244-0.33294 24.032-4.5382 10.606-9.3158 25.383-17.669 46.631-26.359 20.731-8.4787 55.083-19.032 56.636-17.399 1.074 1.129 9.6436 37.923 11.917 51.169 2.5817 15.039 2.2375 24.59-1.5493 43-3.8829 18.877-11.61 49.764-12.881 51.488-0.99906 1.355-1.8969 1.302-8.1106-0.47922-28.77-8.2472-73.554-30.671-89.662-44.895-4.1458-3.661-5.4715-4.2197-12.25-5.1625-5.3416-0.74295-9.8606-0.74295-15.202 0-6.7785 0.9428-8.1042 1.5015-12.25 5.1625-11.904 10.512-40.285 26.246-65.569 36.352-11.104 4.4381-16.679 6.3371-29.829 10.161-1.2354 0.35922-2.0744-0.31888-2.8562-2.3085zm104.12-68.567c6e-3 -10.038 0.28993-19.938 0.63084-22 0.64948-3.9294-0.97647-5.4024-1.9316-1.75-0.62885 2.4047-2.6592 2.4908-14.998 0.6354-4.8334-0.72677-8.9998-0.97867-9.2587-0.55977-0.52258 0.84555 1.7238 1.3927 12.047 2.9341 4.9869 0.74466 7.5033 1.6444 8.75 3.1285 2.1061 2.5072 2.2487 5.7975 0.36302 8.3763-1.2344 1.6881-3.3524 1.9762-19.25 2.6181-9.8247 0.39671-18.201 0.75416-18.613 0.79433-0.4125 0.0402-0.75 0.52303-0.75 1.073 0 0.62998 6.7238 1 18.171 1 15.505 0 18.44 0.24282 20 1.655 2.2075 1.9978 2.3241 4.1928 0.37077 6.9815-1.026 1.4649-4.581 2.9093-12 4.8758-5.7981 1.5368-10.542 3.164-10.542 3.616 0 0.90006 3.4806 0.40271 12.144-1.7353 3.1044-0.7661 7.0366-1.3929 8.7382-1.3929 2.8362 0 3.1471 0.33309 3.7335 4 1.412 8.8302 2.3846 3.0436 2.395-14.25zm30.989 16.806c0-0.79433 1.0201-2.6302 2.267-4.0797l2.267-2.6355 11.483 3.0782c11.722 3.1424 17.983 3.867 17.983 2.0813 0-0.55-0.99936-1-2.2208-1-1.2214 0-7.979-1.6395-15.017-3.6432-11.464-3.2639-12.862-3.9047-13.426-6.1548-1.243-4.9527 0.33245-5.6767 13.021-5.9837 6.4038-0.15495 11.643-0.65282 11.643-1.1064s-4.7793-1.0686-10.621-1.3667c-8.677-0.44285-10.973-0.8939-12.543-2.4647-1.5575-1.5575-1.7328-2.4218-0.92324-4.5512 1.171-3.0799 1.818-3.2813 25.087-7.8082 9.075-1.7655 16.92-3.5875 17.433-4.0489 2.3899-2.1481-1.4477-2.0311-12.701 0.38721-18.03 3.8745-29.686 5.8869-30.65 5.2913-0.46826-0.2894-1.1543-2.5462-1.5245-5.0152-0.5937-3.959-1.9954-6.4312-3.0491-5.3775-0.19711 0.19711 0.2758 3.0547 1.0509 6.3501 1.8179 7.7288 1.7979 16.542-0.0654 28.905-1.7733 11.766-1.7183 10.587-0.49406 10.587 0.55 0 1-0.64991 1-1.4442z"/></g></g></svg>