<?xml version="1.0" encoding="utf-8"?>
<svg xmlns="http://www.w3.org/2000/svg" viewBox="-1937.8 1874.9 625 625" width="1200px" height="1200px" preserveAspectRatio="none" xmlns:bx="https://boxy-svg.com">
  <defs>
    <radialGradient gradientUnits="userSpaceOnUse" cx="10336.652" cy="-6748.008" r="8999.999" id="gradient-3" gradientTransform="matrix(0.033333, 0, 0, 0.033333, -1969.851666, 2412.331422)">
      <stop offset="0" style="stop-color: rgba(234, 243, 234, 1)"/>
      <stop offset="1" style="stop-color: rgba(169, 206, 169, 1)"/>
    </radialGradient>
    <bx:export>
      <bx:file format="svg" path="iwt-logo-icon-650.svg"/>
    </bx:export>
  </defs>
  <rect x="-1937.8" y="1874.94" width="1200" height="1200" style="fill: none; stroke-width: 1;"/>
  <ellipse style="stroke-width: 14.667; stroke: url(&quot;#gradient-3&quot;); fill: rgb(128, 191, 155);" cx="-1625.3" cy="2187.4" rx="299.997" ry="299.997" stroke="none"/>
  <path d="M -1718.8 2363.07 C -1719.1 2363.07 -1719.3 2363.21 -1719.6 2363.75 C -1719.9 2364.29 -1720.2 2365.24 -1720.8 2366.84 C -1721.8 2369.84 -1721.9 2374.34 -1721.2 2377.4 C -1720.9 2378.4 -1720.5 2380.14 -1720.3 2381.24 C -1718.9 2388.37 -1716.8 2395.03 -1714.6 2399.4 C -1714 2400.75 -1713 2402.5 -1712.1 2403.91 C -1711.6 2404.62 -1711.2 2405.24 -1710.9 2405.69 C -1710.6 2406.12 -1710.4 2406.39 -1710.3 2406.4 L -1710.3 2406.41 L -1710.3 2406.37 C -1710.3 2406.38 -1710.3 2406.38 -1710.3 2406.38 C -1710.2 2406.37 -1710.2 2406.35 -1710.2 2406.32 C -1710.2 2406.27 -1710.2 2406.19 -1710.2 2406.09 C -1710.1 2405.89 -1710.1 2405.6 -1710 2405.25 C -1709.9 2404.53 -1709.8 2403.55 -1709.7 2402.47 C -1709.3 2398.77 -1708.7 2396.65 -1708.2 2396.2 C -1708.1 2396.15 -1708.1 2396.12 -1708 2396.12 C -1707.9 2396.11 -1707.9 2396.14 -1707.8 2396.18 C -1707.7 2396.28 -1707.5 2396.49 -1707.4 2396.8 C -1707.1 2397.42 -1706.9 2398.48 -1706.6 2399.97 C -1705.4 2407.2 -1704 2412.43 -1702.5 2415.2 C -1701.6 2416.8 -1698.5 2419.03 -1696.1 2419.8 C -1689.4 2421.9 -1664.4 2423.5 -1638 2423.5 C -1624.1 2423.5 -1621.4 2423.43 -1619.4 2422.97 C -1618 2422.67 -1616.5 2422.17 -1616 2421.9 C -1615.4 2421.6 -1613.3 2419.77 -1611.2 2417.8 C -1609.2 2415.83 -1606.8 2413.63 -1606 2412.9 C -1605.2 2412.17 -1603.9 2411 -1603.2 2410.3 C -1602.5 2409.63 -1601.7 2409.07 -1601.6 2409.07 C -1601.4 2409.07 -1600.7 2408.5 -1600 2407.8 C -1599.4 2407.1 -1597.8 2405.63 -1596.6 2404.57 C -1594.2 2402.4 -1592.6 2400.53 -1590.7 2397.57 C -1590.2 2396.96 -1590 2396.49 -1589.8 2396.16 C -1589.7 2395.99 -1589.7 2395.86 -1589.7 2395.75 C -1589.7 2395.64 -1589.7 2395.57 -1589.8 2395.52 C -1590.1 2395.34 -1591.1 2395.6 -1592.9 2396.2 C -1599.6 2398.43 -1606 2400.17 -1614 2402.07 C -1633.8 2406.7 -1654.9 2408.43 -1667.6 2406.47 C -1676.1 2405.17 -1679.4 2404.24 -1684.6 2401.63 C -1687.4 2400.23 -1692.4 2396.87 -1694.2 2395.2 C -1698.5 2391.03 -1699.6 2389.9 -1701.1 2388.07 C -1702 2386.93 -1703.1 2385.63 -1703.5 2385.13 C -1705.5 2382.73 -1713.6 2370.98 -1714.3 2369.54 L -1714.3 2369.53 L -1714.3 2369.53 C -1714.4 2369.37 -1715.3 2367.83 -1716.4 2366.13 C -1717.5 2364.43 -1718.6 2363.07 -1718.8 2363.07" style="stroke: rgb(0, 0, 0); fill: rgb(255, 255, 255); stroke-width: 0.033;" fill="#000000" stroke="none"/>
  <path d="M -1724.2 2310.39 C -1725.7 2313.32 -1727.3 2316.93 -1728.1 2319.8 C -1728.8 2322.17 -1728.8 2327.03 -1728.1 2329.2 C -1727.5 2331.24 -1724.9 2336.14 -1722.8 2339.34 C -1721.9 2340.7 -1720.8 2342.27 -1720.5 2342.84 C -1719.7 2344.24 -1717.2 2348.03 -1715.5 2350.74 C -1714.7 2351.93 -1712.9 2354.64 -1711.6 2356.74 C -1707.5 2363.14 -1700.9 2372.87 -1700.5 2373.24 C -1700.3 2373.4 -1699.8 2374.14 -1699.4 2374.8 C -1698.7 2376 -1693.8 2382.2 -1692 2384.17 C -1691.5 2384.68 -1691.2 2385.05 -1690.9 2385.25 C -1690.8 2385.35 -1690.7 2385.39 -1690.6 2385.39 C -1690.5 2385.39 -1690.4 2385.33 -1690.4 2385.22 C -1690.2 2384.75 -1690.2 2383.32 -1690.3 2380.47 C -1690.4 2374.7 -1690.2 2372.9 -1688.5 2365.73 C -1688 2363.78 -1687.1 2360.78 -1686.4 2358.36 C -1686 2357.14 -1685.6 2356.07 -1685.4 2355.34 C -1685.3 2354.98 -1685.2 2354.7 -1685.1 2354.54 C -1685 2354.45 -1685 2354.4 -1685 2354.38 C -1685 2354.37 -1685 2354.37 -1685 2354.36 C -1685 2354.36 -1685 2354.36 -1685 2354.36 C -1685 2354.36 -1685 2354.38 -1685 2354.4 C -1685 2354.55 -1684.9 2359.6 -1684.8 2365.74 C -1684.7 2377.97 -1684.5 2379.64 -1682.6 2384.9 C -1681.5 2388.13 -1679.3 2391.4 -1677.6 2392.7 C -1676.1 2393.83 -1672.8 2395.4 -1670.8 2395.93 C -1669.9 2396.17 -1667.4 2396.57 -1665.2 2396.77 C -1659.3 2397.4 -1648.4 2396.6 -1636.5 2394.7 C -1635.4 2394.53 -1633.3 2394.23 -1631.8 2394.07 C -1626.9 2393.5 -1624.5 2393.13 -1620 2392.23 C -1617.5 2391.77 -1614.6 2391.23 -1613.6 2391.07 C -1612.6 2390.93 -1609.7 2390.3 -1607.1 2389.73 C -1604.6 2389.13 -1601.8 2388.53 -1601 2388.37 C -1600.1 2388.2 -1598.9 2387.93 -1598.1 2387.77 C -1596.4 2387.4 -1584.4 2384.27 -1581.5 2383.4 C -1580.2 2383.03 -1578 2382.43 -1576.6 2382.03 C -1573.8 2381.27 -1573.1 2381.07 -1569.6 2379.97 C -1568.3 2379.53 -1566.3 2378.97 -1565.3 2378.74 C -1564.3 2378.5 -1562.3 2377.9 -1561 2377.4 C -1559.6 2376.9 -1557.8 2376.3 -1557 2376.07 C -1544.4 2372.6 -1538.7 2368.43 -1532.5 2358.47 C -1530 2354.57 -1529.5 2353.37 -1528.6 2350.27 C -1528 2347.97 -1527.9 2347 -1528.1 2342.93 C -1528.4 2333.37 -1530.2 2329.7 -1539.6 2319.8 C -1542.3 2317 -1543.9 2314.87 -1545 2312.97 C -1545.5 2312.22 -1545.9 2311.53 -1546.2 2311.04 C -1546.5 2310.54 -1546.8 2310.24 -1546.9 2310.24 C -1547 2310.24 -1549.2 2311.57 -1551.6 2313.24 C -1555.3 2315.8 -1558.5 2317.87 -1564.6 2321.77 C -1565.3 2322.17 -1566.6 2322.93 -1567.6 2323.5 C -1568.6 2324.03 -1569.6 2324.63 -1569.8 2324.77 L -1569.8 2324.77 L -1569.8 2324.77 C -1570 2324.94 -1571.2 2325.57 -1572.3 2326.17 C -1573.5 2326.8 -1575.7 2327.93 -1577.1 2328.7 C -1582.5 2331.6 -1601 2340.74 -1601.5 2340.74 C -1601.6 2340.74 -1603 2341.4 -1604.7 2342.2 C -1611.5 2345.43 -1615.1 2347.07 -1615.3 2347.07 C -1615.5 2347.07 -1616.8 2347.67 -1618.4 2348.37 C -1626.2 2352.03 -1628.7 2352.9 -1633 2353.57 C -1633.8 2353.7 -1635.4 2354.2 -1636.5 2354.64 C -1641.1 2356.6 -1643.4 2357.1 -1648.6 2357.3 C -1653.1 2357.47 -1653.7 2357.4 -1657 2356.57 C -1661.3 2355.47 -1661.6 2355.37 -1666.1 2353.4 C -1671.6 2351.03 -1679.8 2345.97 -1684.5 2342.1 C -1685.1 2341.64 -1686.4 2340.57 -1687.5 2339.74 C -1689.6 2338.07 -1690.7 2337.14 -1696.1 2332.6 C -1700.3 2329.14 -1708.3 2321.4 -1711.3 2317.93 C -1714.5 2314.2 -1718.4 2308.7 -1719.4 2306.5 C -1719.5 2306.1 -1719.7 2305.74 -1719.9 2305.49 C -1719.9 2305.36 -1720 2305.26 -1720.1 2305.19 C -1720.1 2305.16 -1720.1 2305.14 -1720.1 2305.12 C -1720.2 2305.11 -1720.2 2305.11 -1720.2 2305.1 C -1720.2 2305.1 -1720.2 2305.1 -1720.2 2305.11 L -1720.2 2305.1 C -1721 2305.22 -1722.6 2307.46 -1724.2 2310.39" style="stroke: rgb(0, 0, 0); fill: rgb(255, 255, 255); stroke-width: 0.033;" fill="#000000" stroke="none"/>
  <path d="M -1644.5 2143.44 L -1644.4 2143.43 L -1644.5 2143.44 C -1644.5 2143.44 -1644.5 2143.44 -1644.5 2143.44" style="stroke: rgb(0, 0, 0); fill: rgb(255, 255, 255); stroke-width: 0.033;" fill="#000000" stroke="none"/>
  <path d="M -1791.2 2002.44 C -1793.2 2002.67 -1796.4 2003.37 -1799.1 2004.14 C -1799.8 2004.34 -1802 2005.27 -1804 2006.2 C -1806.8 2007.61 -1807.8 2008.34 -1810 2010.47 C -1812.8 2013.2 -1813.3 2013.94 -1814.5 2017.37 C -1815.6 2020.4 -1815.8 2023.61 -1815.2 2027.01 C -1814.6 2029.84 -1814 2031.14 -1811.4 2035.11 C -1810.6 2036.34 -1810 2037.4 -1810 2037.51 C -1810 2037.64 -1803.3 2047.6 -1799 2053.84 C -1797.8 2055.64 -1796.7 2057.37 -1796.5 2057.67 C -1796.3 2057.97 -1795.8 2058.77 -1795.3 2059.4 C -1794.8 2060.04 -1793.8 2061.61 -1792.9 2062.91 C -1792 2064.17 -1791 2065.6 -1790.8 2066.07 C -1787.8 2070.34 -1779 2084.27 -1779 2084.57 C -1779 2084.67 -1778.3 2085.74 -1777.5 2086.97 C -1776.8 2088.24 -1775.7 2090.14 -1775.1 2091.24 C -1774.5 2092.34 -1773.8 2093.77 -1773.4 2094.4 C -1770.5 2099.57 -1765.4 2110.64 -1764 2115.07 C -1763.6 2116.07 -1762.9 2118.04 -1762.5 2119.4 C -1762 2120.77 -1761.3 2122.94 -1761 2124.24 C -1759 2131.64 -1758.6 2133.6 -1758.3 2135.97 C -1758.1 2137.4 -1757.7 2140.14 -1757.4 2142.07 C -1755.8 2153.84 -1756.1 2163.67 -1759 2190.4 C -1760.3 2202.54 -1760.2 2219.34 -1758.8 2227.57 C -1758.5 2229.04 -1758.3 2230.9 -1758.2 2231.74 C -1757.7 2236.2 -1753.3 2252.2 -1750.5 2259.44 C -1749.8 2261.1 -1749.3 2262.6 -1749.3 2262.77 C -1749.3 2262.94 -1748.6 2264.5 -1747.8 2266.2 C -1747 2267.94 -1746.3 2269.44 -1746.3 2269.5 C -1746.3 2269.77 -1742.9 2275.57 -1741.7 2277.4 C -1739.6 2280.57 -1735.9 2285.1 -1732.5 2288.64 C -1731.6 2289.57 -1730.8 2290.46 -1730.2 2291.14 C -1730 2291.48 -1729.7 2291.77 -1729.6 2291.98 C -1729.5 2292.08 -1729.5 2292.17 -1729.4 2292.24 C -1729.4 2292.3 -1729.4 2292.35 -1729.4 2292.37 C -1729.5 2292.54 -1730.2 2292.77 -1731 2292.9 C -1731.4 2292.99 -1731.7 2293.09 -1732 2293.21 C -1732.2 2293.34 -1732.3 2293.49 -1732.3 2293.67 C -1732.3 2294.01 -1732.3 2295.5 -1732.3 2297.07 C -1732.3 2300.34 -1733 2306.6 -1733.7 2308.77 C -1734 2309.57 -1734.3 2310.9 -1734.5 2311.74 C -1734.6 2312.57 -1734.8 2313.9 -1735 2314.74 C -1736.1 2320.84 -1736.3 2323.3 -1736 2326.77 C -1735.7 2330.07 -1735.3 2332.27 -1734.6 2334.6 C -1734.4 2335.17 -1734.3 2335.93 -1734.3 2336.34 C -1734.3 2336.74 -1734.2 2337.33 -1734 2337.67 L -1734 2337.67 L -1734 2337.67 C -1733.8 2337.97 -1733.2 2339.5 -1732.6 2341.07 C -1731.2 2344.6 -1729.1 2348.57 -1727.4 2351.31 C -1726.5 2352.69 -1725.8 2353.75 -1725.2 2354.31 C -1724.9 2354.59 -1724.7 2354.74 -1724.5 2354.73 C -1724.5 2354.73 -1724.4 2354.69 -1724.3 2354.61 C -1724.3 2354.53 -1724.3 2354.4 -1724.3 2354.24 C -1724.3 2353.93 -1724.6 2353.3 -1724.9 2352.8 C -1734.1 2339.77 -1736.8 2325.6 -1732.6 2313.07 C -1731.2 2308.67 -1730.7 2307.57 -1728.8 2304.07 C -1727.5 2301.77 -1725.9 2299.57 -1723 2296.14 C -1721.7 2294.5 -1721.3 2293.8 -1721.3 2292.97 C -1721.5 2288.7 -1719.7 2275.57 -1717.9 2267.74 C -1717.6 2266.17 -1717.1 2264.14 -1716.9 2263.24 C -1716.3 2260.27 -1714.6 2254.6 -1714 2253.24 C -1713.1 2251.14 -1710.5 2248.24 -1708.2 2246.8 C -1705 2244.77 -1694.8 2240.74 -1685.3 2237.8 C -1673.5 2234.17 -1664.3 2232.4 -1657.2 2232.4 L -1653.6 2232.4 L -1653.6 2231.47 C -1653.6 2230.97 -1653.9 2229.74 -1654.2 2228.74 C -1654.6 2227.17 -1654.7 2224.54 -1654.8 2211.3 C -1654.8 2207 -1654.8 2203.08 -1654.7 2200.22 C -1654.7 2198.78 -1654.7 2197.62 -1654.6 2196.8 C -1654.6 2195.99 -1654.6 2195.54 -1654.5 2195.5 C -1654.4 2195.44 -1654.3 2195.44 -1654.1 2195.5 C -1654 2195.56 -1653.8 2195.68 -1653.7 2195.85 C -1653.4 2196.19 -1653 2196.72 -1652.8 2197.37 C -1650.6 2202.54 -1649.8 2205.6 -1648.6 2213.9 C -1647.8 2219.4 -1647.4 2221.74 -1646.2 2226.74 C -1645.8 2228.4 -1644.5 2232.47 -1644 2233.37 C -1643.8 2233.7 -1642.7 2234.37 -1641.4 2234.9 C -1640.2 2235.44 -1638.5 2236.3 -1637.6 2236.87 C -1635.6 2238.2 -1632.4 2241.24 -1631.6 2242.64 C -1631.2 2243.3 -1630.7 2243.79 -1630.3 2244.06 C -1630.1 2244.19 -1629.9 2244.27 -1629.7 2244.29 C -1629.5 2244.3 -1629.3 2244.25 -1629.2 2244.14 C -1628.3 2243.44 -1622 2240.17 -1620.3 2239.5 C -1616.6 2238.1 -1613 2237.07 -1609.4 2236.24 C -1607.4 2235.78 -1605.7 2235.42 -1605.5 2235.4 L -1605.5 2235.4 L -1605.5 2235.39 C -1605.5 2235.38 -1605.5 2235.36 -1605.5 2235.34 C -1605.5 2235.3 -1605.4 2235.23 -1605.4 2235.15 C -1605.4 2234.99 -1605.3 2234.76 -1605.3 2234.47 C -1605.2 2233.89 -1605.1 2233.09 -1605 2232.2 C -1604 2224.07 -1601.9 2220.27 -1596.6 2217 C -1594.6 2215.72 -1592.9 2215.09 -1592.2 2215.1 C -1592 2215.1 -1591.8 2215.14 -1591.7 2215.23 C -1591.7 2215.31 -1591.6 2215.44 -1591.7 2215.6 C -1591.8 2215.93 -1592.1 2216.42 -1592.8 2217.07 C -1594.1 2218.3 -1595 2220.1 -1596.1 2223.37 C -1596.6 2225.17 -1596.8 2226.27 -1596.7 2229.37 C -1596.7 2231.97 -1596.5 2233.34 -1596.2 2233.6 C -1595.9 2233.9 -1595.1 2233.94 -1593 2233.74 C -1590 2233.44 -1587.3 2233.36 -1585.2 2233.49 C -1583.1 2233.61 -1581.7 2233.94 -1581.4 2234.44 C -1581.3 2234.59 -1581.3 2234.72 -1581.4 2234.85 C -1581.4 2234.97 -1581.6 2235.1 -1581.9 2235.24 C -1582.5 2235.52 -1583.7 2235.85 -1585.6 2236.37 C -1592.7 2238.24 -1599.7 2240.74 -1604.4 2243.1 C -1605.4 2243.64 -1606.4 2244.07 -1606.6 2244.07 C -1606.8 2244.07 -1608.5 2244.8 -1610.4 2245.74 C -1612.4 2246.64 -1614 2247.4 -1614.1 2247.4 C -1614.2 2247.4 -1615.3 2247.87 -1616.5 2248.44 C -1617.8 2249 -1619.7 2249.84 -1620.8 2250.24 C -1623 2251.1 -1635 2256 -1641.8 2258.84 C -1644.2 2259.8 -1648 2261.5 -1650.2 2262.57 L -1654.3 2264.5 L -1655.2 2263.64 C -1655.6 2263.25 -1655.8 2263.01 -1655.9 2262.78 C -1655.9 2262.55 -1655.8 2262.34 -1655.7 2262 C -1655.4 2261.57 -1654.3 2260.4 -1653.1 2259.4 C -1651.9 2258.4 -1651 2257.37 -1651 2257.1 C -1651.1 2256.52 -1652.4 2255.77 -1654.1 2255.09 C -1655.9 2254.42 -1658.1 2253.82 -1660.2 2253.54 C -1662.3 2253.27 -1663.5 2253.09 -1664.1 2252.92 C -1664.4 2252.83 -1664.6 2252.74 -1664.7 2252.64 C -1664.8 2252.6 -1664.8 2252.54 -1664.8 2252.49 C -1664.8 2252.43 -1664.8 2252.37 -1664.8 2252.3 C -1664.5 2251.65 -1663 2250.94 -1660.9 2250.35 C -1658.9 2249.76 -1656.2 2249.3 -1653.7 2249.17 C -1649.3 2248.94 -1647.6 2249.4 -1645.4 2251.5 L -1644 2252.84 L -1644 2252.82 L -1641.7 2251.47 C -1640.5 2250.7 -1639.2 2250 -1638.9 2249.87 C -1638.6 2249.79 -1638.5 2249.7 -1638.4 2249.57 C -1638.3 2249.44 -1638.3 2249.29 -1638.3 2249.11 C -1638.4 2248.74 -1638.8 2248.24 -1639.4 2247.57 C -1641.5 2245.07 -1645.2 2243.2 -1649.9 2242.24 C -1653 2241.6 -1660.3 2241.57 -1665 2242.2 C -1677.8 2243.9 -1694.9 2248.57 -1702.6 2252.47 C -1706.8 2254.57 -1707.6 2255.77 -1709.8 2263.34 C -1710.3 2264.87 -1710.8 2267.17 -1711 2268.5 C -1711.2 2269.84 -1711.4 2271.13 -1711.5 2271.4 C -1712 2273.47 -1713 2284.17 -1713.1 2289.17 C -1713.2 2296.17 -1712.9 2298.57 -1711.9 2301.2 C -1710 2305.74 -1703.3 2313.03 -1693.8 2320.93 C -1692.9 2321.7 -1691.2 2323.14 -1690 2324.1 C -1688.8 2325.1 -1687.3 2326.34 -1686.5 2326.87 C -1685.7 2327.4 -1685 2327.96 -1684.9 2328.17 L -1684.9 2328.17 L -1684.9 2328.17 C -1684.8 2328.34 -1684.1 2328.87 -1683.4 2329.37 C -1682.6 2329.84 -1681.5 2330.64 -1680.9 2331.1 C -1675.4 2335.34 -1666.4 2341.4 -1665.6 2341.4 C -1665.5 2341.4 -1665.4 2341.36 -1665.4 2341.31 C -1665.3 2341.25 -1665.3 2341.18 -1665.3 2341.1 C -1665.3 2341.02 -1665.3 2340.93 -1665.4 2340.85 C -1665.4 2340.78 -1665.5 2340.71 -1665.6 2340.67 C -1666.2 2340.43 -1672.3 2329.87 -1674.4 2325.4 C -1678.7 2316.34 -1679.1 2314.4 -1678.9 2304.8 C -1678.6 2295.77 -1677.2 2289.8 -1673.7 2284.03 C -1673.2 2283.12 -1672.2 2281.92 -1671.4 2280.98 C -1671 2280.51 -1670.6 2280.11 -1670.3 2279.84 C -1670.2 2279.71 -1670.1 2279.6 -1670 2279.55 C -1669.9 2279.52 -1669.9 2279.5 -1669.8 2279.49 C -1669.8 2279.48 -1669.8 2279.49 -1669.8 2279.5 C -1669.7 2279.52 -1669.7 2279.56 -1669.7 2279.62 C -1669.7 2279.69 -1669.8 2279.78 -1669.8 2279.9 C -1669.9 2280.13 -1670 2280.45 -1670.1 2280.84 C -1670.4 2281.62 -1670.8 2282.67 -1671.2 2283.8 C -1673.3 2288.93 -1673.6 2290.67 -1673.6 2297.17 C -1673.6 2304.24 -1672.7 2310.53 -1670.9 2315.07 C -1669.5 2318.6 -1665 2325.84 -1660.6 2331.4 C -1659.3 2332.97 -1657.5 2335.27 -1656.6 2336.57 C -1653.2 2340.97 -1651 2342.64 -1647.1 2343.7 C -1644.3 2344.47 -1639.1 2343.97 -1633.5 2342.34 C -1632.2 2341.97 -1630.7 2341.57 -1630.1 2341.4 C -1628.3 2340.93 -1619.8 2337.57 -1615.8 2335.74 C -1611.2 2333.67 -1601.3 2328.84 -1598.8 2327.47 C -1598.4 2327.27 -1596 2326.07 -1593.5 2324.8 C -1588.4 2322.27 -1585.4 2320.7 -1579 2317.27 C -1576.8 2316.07 -1574.9 2315.07 -1574.8 2315.07 C -1574.7 2315.07 -1573.8 2314.57 -1572.7 2313.93 C -1571.7 2313.3 -1569.5 2312.14 -1568 2311.3 C -1566.4 2310.5 -1564.5 2309.47 -1563.6 2309 C -1562.3 2308.27 -1553.6 2303.57 -1547.3 2300.17 C -1546.1 2299.5 -1544.5 2298.67 -1543.8 2298.24 C -1542 2297.24 -1538.9 2295.5 -1536.8 2294.4 C -1531.8 2291.74 -1526.6 2287.8 -1523.5 2284.24 C -1521.6 2282.07 -1520.8 2280.87 -1520.1 2279 C -1517.8 2272.87 -1517.7 2263.5 -1519.8 2254.24 C -1521.1 2248.8 -1521.6 2247.04 -1524.1 2240.57 C -1524.6 2239.1 -1527.9 2232.74 -1528.7 2231.7 C -1529 2231.2 -1529.3 2230.7 -1529.3 2230.6 C -1529.3 2230.3 -1533.2 2224.54 -1534.4 2222.94 C -1537.8 2218.67 -1542.1 2214.24 -1546.6 2210.24 L -1548 2208.98 L -1548 2208.97 L -1548 2208.97 L -1553.2 2209.17 C -1560.3 2209.47 -1565.1 2209.9 -1569.6 2210.77 C -1577.8 2212.27 -1582 2211.97 -1586.6 2209.44 C -1591.3 2206.84 -1597.4 2199.84 -1599.7 2194.4 C -1600.1 2193.4 -1600.5 2192.41 -1600.7 2192.24 C -1601 2191.77 -1602.5 2187 -1603.1 2184.37 C -1603.8 2181.3 -1604.6 2173.6 -1604.6 2169.47 C -1604.6 2168.04 -1604.6 2167.17 -1604.5 2166.64 C -1604.4 2166.11 -1604.3 2165.92 -1604.1 2165.84 C -1603.8 2165.72 -1603.5 2165.68 -1603.3 2165.81 C -1603.1 2165.94 -1602.9 2166.23 -1602.6 2166.75 C -1602.2 2167.8 -1601.7 2169.79 -1600.9 2173.34 C -1599.5 2180 -1597.9 2185.14 -1596.6 2187.74 C -1593.1 2194.87 -1590.8 2197.9 -1586.4 2201.44 C -1583 2204.14 -1580 2204.94 -1575.9 2204.27 C -1574.4 2204 -1571.7 2203.64 -1570 2203.4 C -1568.2 2203.2 -1566 2202.87 -1565.1 2202.74 C -1554.9 2200.94 -1530 2200.04 -1515.5 2200.97 C -1512 2201.2 -1509 2201.23 -1508.9 2201.1 C -1508.8 2201.07 -1508.8 2200.97 -1508.9 2200.82 C -1508.9 2200.68 -1509 2200.48 -1509.1 2200.24 C -1509.3 2199.78 -1509.6 2199.17 -1509.9 2198.54 C -1511.3 2196.04 -1514 2188.7 -1514.6 2185.74 C -1515.7 2180.2 -1516.2 2174.04 -1515.7 2172.07 C -1515.6 2171.6 -1515.5 2171.31 -1515.3 2171.14 C -1515.2 2170.96 -1515 2170.9 -1514.6 2170.9 C -1514.4 2170.9 -1514.2 2170.92 -1514.1 2171.04 C -1513.9 2171.15 -1513.7 2171.36 -1513.6 2171.74 C -1513.2 2172.49 -1512.8 2173.9 -1512 2176.57 C -1511.2 2179.2 -1508.9 2184.8 -1507.8 2187.1 C -1506.6 2189.44 -1504.1 2193 -1502 2195.27 C -1498 2199.6 -1492.9 2202.84 -1488.8 2203.57 C -1483 2204.6 -1473.3 2206.14 -1470.8 2206.47 C -1469.3 2206.64 -1466.3 2207.14 -1464.1 2207.57 C -1461.9 2208 -1458.4 2208.6 -1456.3 2208.9 C -1454.2 2209.2 -1450 2209.8 -1447 2210.24 C -1443.9 2210.67 -1440 2211.17 -1438.1 2211.37 C -1436.3 2211.57 -1433.1 2211.9 -1431 2212.1 C -1425.1 2212.74 -1412.7 2212.64 -1409.6 2211.97 C -1395.9 2209 -1384.9 2200.3 -1378.9 2187.9 C -1376.7 2183.27 -1375 2177.17 -1374.6 2172.47 C -1373.9 2163.42 -1375.8 2155.01 -1380.1 2147.8 C -1384.4 2140.58 -1391 2134.55 -1399.7 2130.27 C -1405.8 2127.3 -1413.3 2124.9 -1424.6 2122.34 C -1432.4 2120.6 -1435.5 2120.34 -1445.8 2120.5 C -1456.2 2120.7 -1460.5 2121.14 -1470.1 2122.9 C -1471.8 2123.2 -1474 2123.57 -1475.1 2123.74 C -1479 2124.34 -1491.2 2127.37 -1495.8 2128.87 C -1501.6 2130.77 -1504.6 2132.17 -1508.5 2134.9 C -1512 2137.34 -1516.5 2142.04 -1518.7 2145.47 C -1519.5 2146.7 -1520.3 2147.8 -1520.6 2147.9 C -1520.8 2147.99 -1521 2147.99 -1521.2 2147.92 C -1521.4 2147.86 -1521.5 2147.71 -1521.6 2147.51 C -1521.9 2147.1 -1522.1 2146.44 -1522.1 2145.63 C -1522.2 2144.01 -1521.9 2141.77 -1521.2 2139.64 C -1520.7 2138.24 -1520.3 2136.87 -1520.3 2136.6 C -1520.3 2136.56 -1520.3 2136.52 -1520.3 2136.48 C -1520.4 2136.44 -1520.4 2136.41 -1520.5 2136.38 C -1520.7 2136.31 -1520.9 2136.27 -1521.3 2136.23 C -1522.1 2136.15 -1523.3 2136.12 -1525.4 2136.1 C -1528.1 2136.07 -1531.9 2135.9 -1533.8 2135.74 C -1535.6 2135.57 -1538.2 2135.34 -1539.5 2135.24 C -1540.7 2135.1 -1542.9 2134.74 -1544.3 2134.4 C -1545.7 2134.07 -1547.5 2133.67 -1548.5 2133.57 C -1550.4 2133.3 -1552 2133.04 -1557.6 2131.9 C -1562.3 2130.97 -1565.9 2130.27 -1568.6 2129.77 C -1569.6 2129.6 -1572.5 2129.07 -1575 2128.6 C -1577.4 2128.17 -1580.5 2127.6 -1581.8 2127.37 C -1583.2 2127.14 -1587 2126.97 -1591.5 2126.97 C -1599 2127 -1600.5 2127.17 -1605.5 2128.7 C -1606.6 2129.04 -1608.4 2129.6 -1609.5 2129.9 C -1611.7 2130.57 -1619.3 2133.34 -1621.6 2134.34 C -1622.5 2134.67 -1624.3 2135.4 -1625.8 2135.9 C -1627.3 2136.4 -1628.6 2136.94 -1628.8 2137.1 C -1629 2137.24 -1630.3 2137.84 -1631.8 2138.4 C -1633.3 2138.97 -1635.2 2139.8 -1636.1 2140.24 C -1637 2140.67 -1639.2 2141.5 -1641 2142.1 C -1642.7 2142.67 -1644.3 2143.27 -1644.5 2143.44 L -1644.5 2143.44 C -1644.5 2143.44 -1644.5 2143.44 -1644.5 2143.44 C -1644.5 2143.44 -1644.5 2143.44 -1644.5 2143.44 C -1644.7 2143.57 -1645.9 2144 -1647.3 2144.4 C -1648.7 2144.8 -1650.2 2145.27 -1650.8 2145.44 C -1651.3 2145.57 -1653.4 2146 -1655.5 2146.34 C -1660.4 2147.17 -1671.1 2146.84 -1675 2145.74 C -1676.3 2145.34 -1678 2144.94 -1678.6 2144.84 L -1679.8 2144.64 L -1679 2145.94 C -1677.4 2148.54 -1676.2 2150.74 -1675.9 2151.8 C -1674.4 2156.8 -1674.2 2158.04 -1674.2 2161.57 C -1674.2 2163.67 -1674.5 2166.37 -1674.8 2167.9 C -1675.5 2171.37 -1678.4 2177.2 -1680.9 2180.47 C -1685 2185.6 -1691.8 2190.94 -1698.5 2194.2 C -1706.7 2198.24 -1718.7 2201.07 -1727.2 2201.07 C -1728 2201.07 -1728.7 2201.04 -1729.1 2200.99 C -1729.4 2200.96 -1729.5 2200.93 -1729.7 2200.9 C -1729.7 2200.89 -1729.8 2200.87 -1729.8 2200.85 C -1729.8 2200.84 -1729.8 2200.84 -1729.8 2200.83 C -1729.8 2200.82 -1729.8 2200.81 -1729.8 2200.8 L -1729.8 2200.8 L -1729.8 2200.8 C -1729.8 2200.8 -1729.8 2200.8 -1729.8 2200.8 C -1729.8 2200.8 -1729.8 2200.8 -1729.8 2200.8 L -1729.8 2200.8 C -1729.7 2200.66 -1728.6 2200 -1727.2 2199.34 C -1722.4 2196.97 -1711.6 2191.74 -1711.4 2191.74 C -1711.3 2191.74 -1702.6 2187.14 -1701 2186.17 C -1692.8 2181.37 -1688.2 2177.6 -1684 2172.1 C -1683.1 2170.8 -1681 2166.74 -1681 2166.04 C -1681 2165.77 -1680.8 2165.4 -1680.7 2165.2 C -1680.1 2164.57 -1679.3 2160 -1679.3 2157 C -1679.3 2152.6 -1681.2 2144.54 -1682.6 2143.17 C -1682.9 2142.87 -1684 2142.2 -1685.1 2141.7 C -1689 2139.94 -1694.3 2135.24 -1697.3 2130.94 C -1699.5 2127.7 -1702.3 2120.1 -1702.3 2117.3 C -1702.3 2116.7 -1702.4 2115.74 -1702.6 2115.14 C -1702.8 2114.5 -1703 2111.77 -1703 2109.04 C -1703.1 2106.4 -1703.2 2104.93 -1703.4 2104.34 C -1703.4 2104.2 -1703.5 2104.11 -1703.6 2104.06 C -1703.6 2104.03 -1703.7 2104.03 -1703.8 2104.09 C -1704 2104.21 -1704.2 2104.51 -1704.5 2104.97 C -1705.8 2107.07 -1710 2112.1 -1712.3 2114.37 C -1714.9 2116.94 -1719.3 2120.4 -1719.9 2120.4 C -1719.9 2120.4 -1720 2120.4 -1720 2120.38 C -1720 2120.37 -1720 2120.35 -1720 2120.32 C -1720 2120.27 -1720 2120.2 -1720 2120.11 C -1720 2119.93 -1719.9 2119.69 -1719.8 2119.45 C -1719.6 2118.95 -1719.3 2118.44 -1719 2118.34 C -1718.5 2118.16 -1715.3 2114.1 -1713.4 2111.27 C -1711.3 2108.27 -1707.9 2101.74 -1706.5 2098.34 C -1705.5 2095.74 -1703.4 2088.7 -1702.9 2086.07 C -1701.1 2076.67 -1701.4 2065.47 -1703.5 2057.4 C -1705.2 2051.3 -1708.1 2044.1 -1710.3 2041.14 C -1710.6 2040.57 -1711 2040.04 -1711 2039.9 C -1711 2039.77 -1711.6 2038.84 -1712.4 2037.8 C -1713.2 2036.74 -1714.1 2035.44 -1714.4 2034.9 C -1715.1 2033.87 -1715.7 2033.14 -1719.7 2029.14 C -1721.8 2026.9 -1725.1 2024.14 -1727.3 2022.64 C -1727.8 2022.34 -1729.2 2021.34 -1730.5 2020.4 C -1731.7 2019.51 -1732.9 2018.74 -1733.1 2018.74 C -1733.2 2018.74 -1733.9 2018.27 -1734.6 2017.7 C -1736.6 2016.04 -1745.5 2011.37 -1751.4 2008.97 C -1758.1 2006.17 -1769.4 2003.24 -1776.5 2002.4 C -1779.9 2002.04 -1788.2 2002.04 -1791.2 2002.44" style="fill: rgb(255, 255, 255); stroke: rgb(4, 69, 191); stroke-width: 0.033;" fill="#000000" stroke="none"/>
  <path d="M -1786.3 1994.32 C -1791.9 1994.99 -1798.5 1996.79 -1802.7 1998.72 C -1806.3 2000.36 -1811.3 2003.92 -1813.6 2006.52 C -1815.2 2008.32 -1817.1 2010.86 -1817.1 2011.29 C -1817.1 2011.42 -1817.4 2011.99 -1817.9 2012.56 C -1818.3 2013.12 -1819.3 2014.76 -1820.1 2016.22 C -1821.5 2018.76 -1821.5 2018.92 -1821.7 2022.56 C -1822.1 2032.69 -1820 2038.69 -1811.3 2051.12 C -1808.5 2055.22 -1807.9 2056.12 -1806.9 2057.55 C -1804.7 2060.55 -1802.9 2063.16 -1800.3 2067.12 C -1798.7 2069.42 -1797.2 2071.49 -1797 2071.75 L -1797 2071.75 L -1797 2071.75 C -1797 2071.75 -1797 2071.75 -1797 2071.75 C -1797 2071.76 -1797 2071.76 -1797 2071.76 L -1797 2071.76 C -1796.7 2071.99 -1796.4 2072.32 -1796.4 2072.49 C -1796.4 2072.66 -1796 2073.42 -1795.5 2074.19 C -1794.4 2075.86 -1791.2 2080.92 -1789.9 2083.26 C -1788.7 2085.22 -1788 2086.49 -1786.5 2089.05 C -1785.9 2090.09 -1784.9 2091.75 -1784.4 2092.75 C -1783.8 2093.75 -1782.6 2095.92 -1781.7 2097.59 C -1780.8 2099.22 -1780 2100.89 -1779.8 2101.25 C -1779.6 2101.62 -1778.7 2103.65 -1777.6 2105.79 C -1776.6 2107.92 -1775.8 2109.75 -1775.8 2109.89 C -1775.8 2109.99 -1775.4 2110.92 -1774.9 2111.95 C -1773.8 2114.45 -1770.5 2123.15 -1770.1 2124.89 C -1769.9 2125.62 -1769.6 2126.79 -1769.4 2127.42 C -1769.3 2128.05 -1768.8 2129.99 -1768.3 2131.69 C -1767.3 2135.19 -1766.6 2139.35 -1765.9 2146.25 C -1765.3 2151.55 -1765.4 2158.72 -1766.3 2166.09 C -1766.6 2168.55 -1766.9 2171.85 -1767.1 2173.42 C -1767.5 2177.32 -1768 2181.35 -1768.7 2184.92 C -1769.5 2189.79 -1770.4 2202.55 -1770.4 2209.92 C -1770.4 2213.82 -1769.9 2221.39 -1769.5 2224.42 C -1769 2227.95 -1765.3 2240.35 -1762.7 2247.25 C -1761.7 2249.89 -1761.3 2251.12 -1759.1 2257.42 C -1757.4 2262.52 -1755.1 2268.05 -1753.7 2270.75 C -1752.2 2273.55 -1749.3 2277.75 -1747.9 2279.25 C -1747.4 2279.82 -1746.6 2280.72 -1746.1 2281.25 C -1745.6 2281.82 -1744.3 2283.15 -1743.1 2284.22 C -1739.7 2287.32 -1738.3 2289.62 -1737.2 2293.62 C -1736.3 2297.32 -1736.6 2300.39 -1738.7 2306.09 C -1740.4 2310.99 -1742.3 2319.18 -1742.6 2323.92 C -1743.8 2338.15 -1740 2352.72 -1732 2365.02 L -1729.9 2368.25 L -1730 2370.59 C -1730.3 2374.75 -1729.6 2379.78 -1727.2 2389.59 C -1725.4 2396.99 -1723.6 2401.85 -1721.2 2405.65 C -1720.6 2406.62 -1720.1 2407.48 -1720.1 2407.58 C -1720.1 2407.92 -1716 2413.48 -1715.1 2414.45 C -1714.6 2414.92 -1713.8 2415.82 -1713.2 2416.49 C -1712.6 2417.15 -1710.9 2418.72 -1709.5 2419.95 C -1708.1 2421.22 -1706.1 2422.99 -1705.1 2423.95 C -1702.1 2426.68 -1699.2 2428.38 -1695.6 2429.45 C -1687.7 2431.72 -1680.2 2432.38 -1654.4 2433.12 C -1632.3 2433.75 -1616.4 2432.82 -1612.9 2430.72 C -1612.4 2430.35 -1611.6 2429.95 -1611.2 2429.78 C -1610.2 2429.35 -1607.7 2427.12 -1602.6 2422.12 C -1600.2 2419.82 -1597.2 2417.02 -1595.9 2415.92 C -1593 2413.45 -1586.1 2406.59 -1585.3 2405.28 C -1584.9 2404.75 -1584.3 2403.95 -1583.9 2403.45 C -1582.2 2401.39 -1579.8 2395.78 -1579.8 2394.08 C -1579.8 2393.62 -1579.6 2392.72 -1579.4 2392.08 C -1579.1 2391.05 -1578.8 2390.78 -1576.6 2389.82 C -1575.2 2389.22 -1573.3 2388.49 -1572.3 2388.22 C -1571.4 2387.92 -1569 2387.12 -1567.1 2386.42 C -1565.2 2385.72 -1561.3 2384.42 -1558.6 2383.55 C -1549.6 2380.75 -1542.6 2377.62 -1538.5 2374.65 C -1537.7 2374.05 -1535.7 2372.45 -1534.1 2371.05 C -1532.5 2369.65 -1530.9 2368.29 -1530.5 2368.05 C -1529 2366.95 -1524.2 2360.62 -1522.9 2358.02 C -1521.5 2355.35 -1521.3 2354.65 -1520.4 2351.49 C -1519.9 2349.45 -1519.6 2338.68 -1520.1 2336.25 C -1520.7 2332.75 -1520.8 2332.32 -1522.4 2328.92 C -1524.4 2324.92 -1526 2322.75 -1532.1 2316.49 C -1533.4 2315.09 -1534.8 2313.55 -1535.1 2313.09 C -1535.4 2312.62 -1536.2 2311.42 -1537 2310.42 C -1537.7 2309.42 -1538.6 2307.95 -1538.9 2307.15 C -1539.3 2306.28 -1539.4 2305.64 -1539.2 2305.04 C -1538.9 2304.44 -1538.3 2303.89 -1537.3 2303.22 C -1536.5 2302.72 -1535.4 2301.89 -1534.8 2301.39 C -1533.1 2300.02 -1526.9 2295.39 -1525.6 2294.52 C -1525 2294.12 -1524.1 2293.39 -1523.6 2292.92 C -1523 2292.42 -1521.8 2291.52 -1520.9 2290.89 C -1518.6 2289.39 -1515.6 2286.19 -1514.9 2284.55 C -1514.1 2282.65 -1512.9 2278.55 -1512.5 2276.42 C -1511.6 2272.19 -1511.8 2257.02 -1512.7 2250.42 C -1513.1 2247.99 -1514.4 2242.05 -1515.4 2238.65 C -1518.1 2229.45 -1524 2219.12 -1531.2 2211.32 C -1532 2210.37 -1532.7 2209.52 -1532.8 2209.33 L -1532.8 2209.31 L -1532.8 2209.3 C -1532.8 2209.3 -1532.7 2209.29 -1532.7 2209.29 C -1532.7 2209.28 -1532.7 2209.27 -1532.6 2209.26 C -1532.5 2209.24 -1532.4 2209.23 -1532.2 2209.21 C -1531.8 2209.18 -1531.2 2209.16 -1530.6 2209.14 C -1529.2 2209.11 -1527.3 2209.1 -1525.3 2209.11 C -1521.1 2209.13 -1516.2 2209.24 -1513.3 2209.42 C -1510.5 2209.59 -1506.8 2209.82 -1505.1 2209.92 C -1500.4 2210.22 -1487.4 2211.45 -1482.4 2212.05 C -1481.1 2212.25 -1478.4 2212.55 -1476.4 2212.75 C -1472 2213.22 -1466.3 2214.02 -1464.5 2214.45 C -1463.8 2214.62 -1462.7 2214.75 -1462.1 2214.75 C -1461.5 2214.75 -1460.1 2214.89 -1459.1 2215.09 C -1454.4 2215.89 -1440.4 2218.05 -1438.6 2218.25 C -1421.3 2219.99 -1418 2220.02 -1409.5 2218.55 C -1403.6 2217.55 -1393.5 2213.42 -1389.8 2210.45 C -1389.2 2209.99 -1388.4 2209.42 -1388.1 2209.25 C -1386.5 2208.29 -1381.3 2203.49 -1379.1 2200.92 C -1377.9 2199.45 -1374.6 2194.69 -1373.9 2193.42 C -1373.5 2192.79 -1373 2191.89 -1372.7 2191.42 C -1372.4 2190.95 -1371.4 2188.79 -1370.6 2186.59 C -1366 2174.69 -1366 2160.62 -1370.7 2149.29 C -1372.7 2144.49 -1376.1 2138.85 -1379 2135.85 C -1384 2130.49 -1384.9 2129.69 -1389.3 2126.65 C -1392.6 2124.42 -1394.9 2123.05 -1397.8 2121.72 C -1399 2121.19 -1400.2 2120.59 -1400.6 2120.42 C -1402 2119.79 -1405 2118.65 -1406.9 2118.05 C -1408 2117.72 -1409.8 2117.15 -1410.9 2116.75 C -1413.3 2115.95 -1425.4 2113.12 -1428.3 2112.72 C -1436.5 2111.55 -1444.4 2111.32 -1453.6 2112.02 C -1463.7 2112.79 -1463.7 2112.82 -1475.9 2115.12 C -1478.9 2115.69 -1482.3 2116.42 -1483.6 2116.82 C -1484.9 2117.19 -1487 2117.75 -1488.3 2118.09 C -1489.5 2118.42 -1491.5 2118.99 -1492.6 2119.42 C -1493.7 2119.82 -1495.6 2120.49 -1496.9 2120.92 C -1499.5 2121.75 -1504.9 2124.25 -1507.8 2125.92 C -1508.9 2126.59 -1510.5 2127.15 -1511.9 2127.42 C -1513.2 2127.65 -1514.7 2127.99 -1515.3 2128.15 C -1516.8 2128.69 -1530.2 2128.89 -1533.3 2128.42 C -1534.7 2128.22 -1537 2127.89 -1538.3 2127.72 C -1546.4 2126.72 -1549.8 2126.22 -1552.6 2125.55 C -1555 2125.02 -1556.4 2124.72 -1559.9 2124.15 C -1561 2123.95 -1564.6 2123.29 -1567.8 2122.65 C -1571 2122.02 -1574.3 2121.39 -1575.3 2121.25 C -1589.6 2119.45 -1598.6 2119.85 -1608.4 2122.82 C -1616.2 2125.15 -1619.1 2126.25 -1630.1 2130.99 C -1642 2136.12 -1647.7 2138.12 -1654.1 2139.39 C -1659.1 2140.39 -1660.2 2140.52 -1663.3 2140.52 C -1666.4 2140.52 -1668.9 2140.22 -1672.4 2139.39 C -1678.8 2137.92 -1684.6 2134.59 -1688.5 2130.25 C -1689.9 2128.59 -1692.5 2124.05 -1693.2 2121.99 C -1695.4 2114.95 -1695.9 2101.42 -1694.6 2085.25 C -1693.4 2070.99 -1693.2 2058.95 -1694.1 2053.92 C -1694.7 2051.09 -1697.1 2043.76 -1698.7 2040.36 C -1699.5 2038.76 -1700.1 2037.36 -1700.1 2037.26 C -1700.1 2036.99 -1703.1 2032.36 -1704.5 2030.42 C -1708.3 2025.36 -1715.5 2018.22 -1720.5 2014.49 C -1724.7 2011.36 -1726.5 2010.09 -1726.6 2010.09 C -1726.7 2010.09 -1727.7 2009.52 -1728.9 2008.82 C -1730 2008.09 -1731.9 2006.99 -1733.1 2006.32 C -1734.3 2005.69 -1735.6 2004.99 -1736 2004.79 C -1737 2004.19 -1743.2 2001.42 -1743.4 2001.42 C -1743.6 2001.42 -1746.6 2000.29 -1748.9 1999.26 C -1750 1998.82 -1750.4 1998.69 -1756.8 1996.95 C -1764.4 1994.86 -1770.7 1994.06 -1779.3 1994.12 C -1782.6 1994.15 -1785.7 1994.26 -1786.3 1994.32 L -1786.3 1994.32 Z M -1776.6 2002.42 C -1769.5 2003.26 -1758.3 2006.19 -1751.5 2008.99 C -1745.7 2011.39 -1736.7 2016.06 -1734.7 2017.72 C -1734 2018.29 -1733.4 2018.76 -1733.2 2018.76 C -1733.1 2018.76 -1731.9 2019.52 -1730.6 2020.42 C -1729.3 2021.36 -1727.9 2022.35 -1727.4 2022.65 C -1725.3 2024.15 -1722 2026.92 -1719.8 2029.15 C -1715.9 2033.15 -1715.2 2033.89 -1714.6 2034.92 C -1714.2 2035.45 -1713.3 2036.75 -1712.5 2037.82 C -1711.7 2038.85 -1711.1 2039.79 -1711.1 2039.92 C -1711.1 2040.06 -1710.8 2040.59 -1710.4 2041.15 C -1708.3 2044.12 -1705.3 2051.32 -1703.7 2057.42 C -1701.5 2065.49 -1701.2 2076.69 -1703 2086.09 C -1703.5 2088.72 -1705.6 2095.75 -1706.7 2098.35 C -1708 2101.75 -1711.5 2108.29 -1713.5 2111.29 C -1715.4 2114.12 -1718.7 2118.18 -1719.2 2118.35 C -1719.4 2118.45 -1719.8 2118.97 -1720 2119.46 C -1720.1 2119.71 -1720.2 2119.95 -1720.2 2120.13 C -1720.2 2120.22 -1720.2 2120.29 -1720.2 2120.34 C -1720.2 2120.37 -1720.2 2120.39 -1720.1 2120.4 C -1720.1 2120.41 -1720.1 2120.42 -1720.1 2120.42 C -1719.4 2120.42 -1715.1 2116.95 -1712.5 2114.39 C -1710.2 2112.12 -1706 2107.09 -1704.7 2104.99 C -1704.4 2104.53 -1704.1 2104.23 -1704 2104.11 C -1703.9 2104.05 -1703.8 2104.04 -1703.7 2104.08 C -1703.6 2104.12 -1703.6 2104.21 -1703.5 2104.36 C -1703.3 2104.95 -1703.2 2106.42 -1703.2 2109.05 C -1703.1 2111.79 -1702.9 2114.52 -1702.8 2115.15 C -1702.6 2115.75 -1702.4 2116.72 -1702.4 2117.32 C -1702.4 2120.12 -1699.6 2127.72 -1697.4 2130.95 C -1694.4 2135.25 -1689.1 2139.95 -1685.3 2141.72 C -1684.2 2142.22 -1683 2142.89 -1682.7 2143.19 C -1681.4 2144.55 -1679.4 2152.62 -1679.4 2157.02 C -1679.4 2160.02 -1680.2 2164.59 -1680.8 2165.22 C -1681 2165.42 -1681.1 2165.79 -1681.1 2166.05 C -1681.1 2166.75 -1683.2 2170.82 -1684.2 2172.12 C -1688.4 2177.62 -1692.9 2181.39 -1701.1 2186.19 C -1702.7 2187.15 -1711.4 2191.75 -1711.6 2191.75 C -1711.7 2191.75 -1722.6 2196.99 -1727.4 2199.35 C -1728.7 2200.01 -1729.9 2200.68 -1730 2200.82 L -1730 2200.82 C -1730 2200.82 -1730 2200.82 -1730 2200.82 C -1730 2200.82 -1730 2200.82 -1730 2200.82 L -1730 2200.82 L -1730 2200.82 C -1730 2200.83 -1730 2200.84 -1730 2200.84 C -1730 2200.85 -1730 2200.86 -1730 2200.87 C -1729.9 2200.89 -1729.9 2200.9 -1729.8 2200.92 C -1729.7 2200.95 -1729.5 2200.98 -1729.3 2201 C -1728.8 2201.05 -1728.1 2201.09 -1727.4 2201.09 C -1718.8 2201.09 -1706.9 2198.25 -1698.6 2194.22 C -1691.9 2190.95 -1685.1 2185.62 -1681.1 2180.49 C -1678.5 2177.22 -1675.6 2171.39 -1674.9 2167.92 C -1674.6 2166.39 -1674.3 2163.69 -1674.3 2161.59 C -1674.3 2158.05 -1674.5 2156.82 -1676.1 2151.82 C -1676.4 2150.75 -1677.5 2148.55 -1679.1 2145.95 L -1679.9 2144.65 L -1678.7 2144.85 C -1678.1 2144.95 -1676.5 2145.35 -1675.1 2145.75 C -1671.2 2146.85 -1660.6 2147.19 -1655.6 2146.35 C -1653.6 2146.02 -1651.5 2145.59 -1650.9 2145.45 C -1650.4 2145.29 -1648.8 2144.82 -1647.4 2144.42 C -1646.1 2144.02 -1644.8 2143.59 -1644.6 2143.45 L -1644.6 2143.45 C -1644.6 2143.45 -1644.6 2143.45 -1644.6 2143.45 C -1644.6 2143.45 -1644.6 2143.45 -1644.6 2143.45 C -1644.6 2143.45 -1644.6 2143.45 -1644.6 2143.45 L -1644.6 2143.45 L -1644.6 2143.45 C -1644.4 2143.29 -1642.8 2142.69 -1641.1 2142.12 C -1639.4 2141.52 -1637.2 2140.69 -1636.3 2140.25 C -1635.3 2139.82 -1633.4 2138.99 -1631.9 2138.42 C -1630.5 2137.85 -1629.1 2137.25 -1628.9 2137.12 C -1628.7 2136.95 -1627.4 2136.42 -1625.9 2135.92 C -1624.5 2135.42 -1622.6 2134.69 -1621.8 2134.35 C -1619.5 2133.35 -1611.8 2130.59 -1609.6 2129.92 C -1608.5 2129.62 -1606.7 2129.05 -1605.6 2128.72 C -1600.6 2127.19 -1599.2 2127.02 -1591.6 2126.99 C -1587.1 2126.99 -1583.4 2127.15 -1581.9 2127.39 C -1580.6 2127.62 -1577.6 2128.19 -1575.1 2128.62 C -1572.6 2129.09 -1569.8 2129.62 -1568.8 2129.79 C -1566 2130.29 -1562.4 2130.99 -1557.8 2131.92 C -1552.2 2133.05 -1550.6 2133.32 -1548.6 2133.59 C -1547.7 2133.69 -1545.8 2134.09 -1544.4 2134.42 C -1543.1 2134.75 -1540.9 2135.12 -1539.6 2135.25 C -1538.3 2135.35 -1535.8 2135.59 -1533.9 2135.75 C -1532.1 2135.92 -1528.3 2136.09 -1525.5 2136.12 C -1523.5 2136.14 -1522.2 2136.17 -1521.5 2136.25 C -1521.1 2136.28 -1520.8 2136.33 -1520.7 2136.39 C -1520.6 2136.42 -1520.5 2136.46 -1520.5 2136.49 C -1520.5 2136.53 -1520.4 2136.57 -1520.4 2136.62 C -1520.4 2136.89 -1520.8 2138.25 -1521.3 2139.65 C -1522.1 2141.79 -1522.4 2144.03 -1522.3 2145.65 C -1522.2 2146.46 -1522 2147.12 -1521.8 2147.52 C -1521.7 2147.73 -1521.5 2147.87 -1521.3 2147.94 C -1521.2 2148.01 -1521 2148.01 -1520.7 2147.92 C -1520.5 2147.82 -1519.6 2146.72 -1518.8 2145.49 C -1516.7 2142.05 -1512.1 2137.35 -1508.6 2134.92 C -1504.7 2132.19 -1501.7 2130.79 -1495.9 2128.89 C -1491.3 2127.39 -1479.2 2124.35 -1475.3 2123.75 C -1474.2 2123.59 -1471.9 2123.22 -1470.3 2122.92 C -1460.6 2121.15 -1456.3 2120.72 -1445.9 2120.52 C -1435.7 2120.35 -1432.5 2120.62 -1424.8 2122.35 C -1413.4 2124.92 -1405.9 2127.32 -1399.9 2130.29 C -1391.2 2134.57 -1384.5 2140.6 -1380.2 2147.81 C -1376 2155.03 -1374 2163.44 -1374.7 2172.49 C -1375.1 2177.19 -1376.8 2183.29 -1379.1 2187.92 C -1385 2200.32 -1396.1 2209.02 -1409.7 2211.99 C -1412.9 2212.65 -1425.2 2212.75 -1431.1 2212.12 C -1433.2 2211.92 -1436.4 2211.59 -1438.3 2211.39 C -1440.1 2211.19 -1444.1 2210.69 -1447.1 2210.25 C -1450.1 2209.82 -1454.3 2209.22 -1456.4 2208.92 C -1458.5 2208.62 -1462.1 2208.02 -1464.3 2207.59 C -1466.5 2207.15 -1469.5 2206.65 -1470.9 2206.49 C -1473.5 2206.15 -1483.2 2204.62 -1488.9 2203.59 C -1493 2202.85 -1498.2 2199.62 -1502.1 2195.29 C -1504.2 2193.02 -1506.7 2189.45 -1507.9 2187.12 C -1509.1 2184.82 -1511.3 2179.22 -1512.1 2176.59 C -1512.9 2173.92 -1513.4 2172.5 -1513.7 2171.75 C -1513.9 2171.38 -1514 2171.17 -1514.2 2171.06 C -1514.4 2170.94 -1514.5 2170.92 -1514.8 2170.92 C -1515.1 2170.92 -1515.3 2170.98 -1515.5 2171.15 C -1515.6 2171.33 -1515.7 2171.62 -1515.8 2172.09 C -1516.3 2174.05 -1515.8 2180.22 -1514.7 2185.75 C -1514.2 2188.72 -1511.5 2196.05 -1510.1 2198.55 C -1509.7 2199.19 -1509.4 2199.8 -1509.2 2200.26 C -1509.1 2200.49 -1509.1 2200.69 -1509 2200.84 C -1509 2200.99 -1509 2201.08 -1509 2201.12 C -1509.1 2201.25 -1512.1 2201.22 -1515.6 2200.99 C -1530.1 2200.05 -1555 2200.95 -1565.3 2202.75 C -1566.2 2202.89 -1568.4 2203.22 -1570.1 2203.42 C -1571.8 2203.65 -1574.5 2204.02 -1576 2204.29 C -1580.1 2204.95 -1583.2 2204.15 -1586.5 2201.45 C -1591 2197.92 -1593.2 2194.89 -1596.8 2187.75 C -1598.1 2185.15 -1599.6 2180.02 -1601.1 2173.35 C -1601.9 2169.8 -1602.4 2167.81 -1602.8 2166.77 C -1603 2166.24 -1603.2 2165.95 -1603.5 2165.83 C -1603.7 2165.7 -1603.9 2165.74 -1604.2 2165.85 C -1604.5 2165.94 -1604.6 2166.13 -1604.7 2166.66 C -1604.7 2167.19 -1604.8 2168.05 -1604.8 2169.49 C -1604.8 2173.62 -1604 2181.32 -1603.3 2184.39 C -1602.6 2187.02 -1601.1 2191.79 -1600.8 2192.25 C -1600.7 2192.42 -1600.2 2193.42 -1599.8 2194.42 C -1597.5 2199.85 -1591.5 2206.85 -1586.7 2209.45 C -1582.1 2211.99 -1577.9 2212.29 -1569.8 2210.79 C -1565.2 2209.92 -1560.5 2209.49 -1553.4 2209.19 L -1548.2 2208.99 L -1548.1 2208.99 L -1548.1 2208.99 L -1546.7 2210.25 C -1542.2 2214.25 -1538 2218.69 -1534.6 2222.95 C -1533.3 2224.55 -1529.4 2230.32 -1529.4 2230.62 C -1529.4 2230.72 -1529.1 2231.22 -1528.8 2231.72 C -1528.1 2232.75 -1524.8 2239.12 -1524.2 2240.59 C -1521.7 2247.05 -1521.2 2248.82 -1520 2254.25 C -1517.8 2263.52 -1518 2272.89 -1520.3 2279.02 C -1521 2280.89 -1521.7 2282.09 -1523.6 2284.25 C -1526.8 2287.82 -1531.9 2291.75 -1536.9 2294.42 C -1539 2295.52 -1542.2 2297.25 -1543.9 2298.25 C -1544.7 2298.68 -1546.2 2299.52 -1547.4 2300.18 C -1553.8 2303.59 -1562.5 2308.28 -1563.8 2309.02 C -1564.6 2309.49 -1566.5 2310.52 -1568.1 2311.32 C -1569.7 2312.15 -1571.8 2313.32 -1572.9 2313.95 C -1573.9 2314.59 -1574.9 2315.09 -1574.9 2315.09 C -1575 2315.09 -1576.9 2316.09 -1579.2 2317.28 C -1585.5 2320.72 -1588.5 2322.28 -1593.6 2324.82 C -1596.2 2326.09 -1598.6 2327.28 -1598.9 2327.49 C -1601.4 2328.85 -1611.4 2333.68 -1615.9 2335.75 C -1620 2337.59 -1628.5 2340.95 -1630.3 2341.42 C -1630.8 2341.59 -1632.3 2341.99 -1633.6 2342.35 C -1639.2 2343.99 -1644.4 2344.49 -1647.3 2343.72 C -1651.1 2342.65 -1653.4 2340.99 -1656.7 2336.59 C -1657.7 2335.28 -1659.5 2332.99 -1660.7 2331.42 C -1665.1 2325.85 -1669.7 2318.62 -1671.1 2315.09 C -1672.8 2310.55 -1673.8 2304.25 -1673.8 2297.19 C -1673.8 2290.69 -1673.5 2288.95 -1671.4 2283.82 C -1670.9 2282.69 -1670.5 2281.64 -1670.2 2280.86 C -1670.1 2280.47 -1670 2280.14 -1669.9 2279.91 C -1669.9 2279.8 -1669.9 2279.71 -1669.9 2279.64 C -1669.9 2279.57 -1669.9 2279.53 -1669.9 2279.52 C -1669.9 2279.5 -1670 2279.5 -1670 2279.51 C -1670 2279.51 -1670.1 2279.53 -1670.1 2279.56 C -1670.2 2279.62 -1670.3 2279.72 -1670.5 2279.86 C -1670.8 2280.13 -1671.2 2280.53 -1671.6 2281 C -1672.4 2281.94 -1673.3 2283.14 -1673.9 2284.05 C -1677.3 2289.82 -1678.8 2295.79 -1679 2304.82 C -1679.3 2314.42 -1678.9 2316.35 -1674.5 2325.42 C -1672.4 2329.89 -1666.3 2340.45 -1665.7 2340.68 C -1665.6 2340.73 -1665.6 2340.79 -1665.5 2340.87 C -1665.5 2340.95 -1665.5 2341.03 -1665.5 2341.11 C -1665.5 2341.2 -1665.5 2341.27 -1665.5 2341.33 C -1665.6 2341.38 -1665.7 2341.42 -1665.8 2341.42 C -1666.5 2341.42 -1675.5 2335.35 -1681.1 2331.12 C -1681.7 2330.65 -1682.8 2329.85 -1683.5 2329.39 C -1684.2 2328.89 -1684.9 2328.36 -1685.1 2328.19 L -1685.1 2328.18 L -1685.1 2328.18 C -1685.2 2327.98 -1685.9 2327.42 -1686.6 2326.89 C -1687.4 2326.35 -1689 2325.12 -1690.1 2324.12 C -1691.3 2323.15 -1693 2321.72 -1693.9 2320.95 C -1703.5 2313.05 -1710.1 2305.75 -1712 2301.22 C -1713.1 2298.59 -1713.3 2296.19 -1713.2 2289.19 C -1713.2 2284.19 -1712.2 2273.49 -1711.6 2271.42 C -1711.5 2271.15 -1711.3 2269.85 -1711.1 2268.52 C -1710.9 2267.19 -1710.4 2264.89 -1710 2263.35 C -1707.7 2255.79 -1706.9 2254.59 -1702.8 2252.49 C -1695 2248.59 -1677.9 2243.92 -1665.2 2242.22 C -1660.4 2241.59 -1653.1 2241.62 -1650 2242.25 C -1645.4 2243.22 -1641.7 2245.09 -1639.5 2247.59 C -1638.9 2248.25 -1638.6 2248.75 -1638.5 2249.12 C -1638.5 2249.31 -1638.5 2249.46 -1638.6 2249.59 C -1638.7 2249.71 -1638.8 2249.81 -1639 2249.89 C -1639.3 2250.02 -1640.6 2250.72 -1641.9 2251.49 L -1644.1 2252.84 L -1644.1 2252.85 L -1645.5 2251.52 C -1647.7 2249.42 -1649.4 2248.95 -1653.9 2249.19 C -1656.4 2249.32 -1659 2249.78 -1661.1 2250.36 C -1663.1 2250.95 -1664.7 2251.67 -1664.9 2252.32 C -1664.9 2252.39 -1665 2252.45 -1664.9 2252.5 C -1664.9 2252.56 -1664.9 2252.61 -1664.9 2252.66 C -1664.8 2252.76 -1664.6 2252.85 -1664.3 2252.94 C -1663.6 2253.11 -1662.4 2253.29 -1660.3 2253.55 C -1658.2 2253.84 -1656 2254.44 -1654.3 2255.11 C -1652.5 2255.79 -1651.3 2256.53 -1651.2 2257.12 C -1651.1 2257.39 -1652 2258.42 -1653.2 2259.42 C -1654.4 2260.42 -1655.6 2261.59 -1655.8 2262.02 C -1656 2262.35 -1656.1 2262.57 -1656 2262.8 C -1656 2263.03 -1655.7 2263.27 -1655.3 2263.65 L -1654.5 2264.54 L -1654.5 2264.52 L -1650.4 2262.59 C -1648.1 2261.52 -1644.3 2259.82 -1641.9 2258.85 C -1635.2 2256.02 -1623.1 2251.12 -1620.9 2250.25 C -1619.8 2249.85 -1617.9 2249.02 -1616.7 2248.45 C -1615.4 2247.89 -1614.3 2247.42 -1614.3 2247.42 C -1614.2 2247.42 -1612.5 2246.65 -1610.6 2245.75 C -1608.6 2244.82 -1606.9 2244.09 -1606.7 2244.09 C -1606.6 2244.09 -1605.6 2243.65 -1604.5 2243.12 C -1599.8 2240.75 -1592.9 2238.25 -1585.8 2236.39 C -1583.8 2235.87 -1582.7 2235.54 -1582.1 2235.26 C -1581.8 2235.12 -1581.6 2234.99 -1581.5 2234.86 C -1581.5 2234.74 -1581.5 2234.6 -1581.6 2234.45 C -1581.9 2233.95 -1583.3 2233.63 -1585.4 2233.5 C -1587.4 2233.38 -1590.1 2233.45 -1593.1 2233.75 C -1595.2 2233.95 -1596 2233.92 -1596.4 2233.62 C -1596.6 2233.35 -1596.8 2231.99 -1596.8 2229.39 C -1596.9 2226.29 -1596.8 2225.19 -1596.2 2223.39 C -1595.1 2220.12 -1594.2 2218.32 -1592.9 2217.09 C -1592.3 2216.44 -1591.9 2215.95 -1591.8 2215.62 C -1591.8 2215.45 -1591.8 2215.33 -1591.9 2215.25 C -1592 2215.16 -1592.1 2215.12 -1592.3 2215.12 C -1593.1 2215.1 -1594.7 2215.74 -1596.8 2217.02 C -1602 2220.29 -1604.1 2224.09 -1605.1 2232.22 C -1605.2 2233.1 -1605.3 2233.9 -1605.4 2234.48 C -1605.5 2234.77 -1605.5 2235.01 -1605.6 2235.17 C -1605.6 2235.25 -1605.6 2235.31 -1605.6 2235.36 C -1605.6 2235.38 -1605.6 2235.39 -1605.7 2235.4 L -1605.7 2235.42 L -1605.7 2235.42 C -1605.8 2235.44 -1607.6 2235.8 -1609.5 2236.25 C -1613.2 2237.09 -1616.7 2238.12 -1620.4 2239.52 C -1622.2 2240.19 -1628.5 2243.45 -1629.3 2244.15 C -1629.5 2244.27 -1629.7 2244.32 -1629.8 2244.3 C -1630 2244.29 -1630.2 2244.21 -1630.4 2244.08 C -1630.9 2243.81 -1631.3 2243.32 -1631.7 2242.65 C -1632.6 2241.25 -1635.8 2238.22 -1637.8 2236.89 C -1638.6 2236.32 -1640.3 2235.45 -1641.5 2234.92 C -1642.8 2234.39 -1643.9 2233.72 -1644.1 2233.39 C -1644.6 2232.49 -1646 2228.42 -1646.4 2226.75 C -1647.5 2221.75 -1648 2219.42 -1648.8 2213.92 C -1650 2205.62 -1650.7 2202.55 -1652.9 2197.39 C -1653.2 2196.74 -1653.5 2196.2 -1653.8 2195.87 C -1654 2195.7 -1654.1 2195.58 -1654.3 2195.52 C -1654.4 2195.45 -1654.6 2195.45 -1654.7 2195.52 C -1654.7 2195.56 -1654.8 2196.01 -1654.8 2196.82 C -1654.8 2197.64 -1654.8 2198.8 -1654.9 2200.23 C -1654.9 2203.09 -1654.9 2207.02 -1654.9 2211.32 C -1654.9 2224.55 -1654.8 2227.19 -1654.3 2228.75 C -1654 2229.75 -1653.8 2230.99 -1653.8 2231.49 L -1653.8 2232.42 L -1657.3 2232.42 C -1664.4 2232.42 -1673.7 2234.19 -1685.4 2237.82 C -1694.9 2240.75 -1705.2 2244.79 -1708.3 2246.82 C -1710.6 2248.25 -1713.2 2251.15 -1714.1 2253.25 C -1714.7 2254.62 -1716.4 2260.29 -1717 2263.25 C -1717.2 2264.15 -1717.7 2266.19 -1718.1 2267.75 C -1719.9 2275.59 -1721.7 2288.72 -1721.5 2292.99 C -1721.4 2293.82 -1721.8 2294.52 -1723.2 2296.15 C -1726.1 2299.59 -1727.6 2301.79 -1728.9 2304.09 C -1730.8 2307.59 -1731.3 2308.68 -1732.8 2313.09 C -1736.9 2325.62 -1734.2 2339.78 -1725.1 2352.82 C -1724.7 2353.32 -1724.4 2353.95 -1724.4 2354.25 C -1724.4 2354.42 -1724.5 2354.54 -1724.5 2354.63 C -1724.5 2354.71 -1724.6 2354.75 -1724.7 2354.75 C -1724.8 2354.75 -1725.1 2354.61 -1725.4 2354.33 C -1725.9 2353.77 -1726.7 2352.7 -1727.6 2351.33 C -1729.3 2348.59 -1731.4 2344.62 -1732.7 2341.09 C -1733.3 2339.52 -1733.9 2337.99 -1734.1 2337.69 L -1734.1 2337.68 L -1734.1 2337.68 C -1734.3 2337.35 -1734.4 2336.75 -1734.4 2336.35 C -1734.4 2335.95 -1734.6 2335.18 -1734.7 2334.62 C -1735.4 2332.28 -1735.8 2330.09 -1736.1 2326.78 C -1736.4 2323.32 -1736.2 2320.85 -1735.1 2314.75 C -1734.9 2313.92 -1734.7 2312.59 -1734.6 2311.75 C -1734.5 2310.92 -1734.1 2309.59 -1733.9 2308.79 C -1733.2 2306.62 -1732.4 2300.35 -1732.4 2297.09 C -1732.5 2295.52 -1732.5 2294.02 -1732.5 2293.69 C -1732.5 2293.5 -1732.3 2293.35 -1732.1 2293.23 C -1731.9 2293.1 -1731.6 2293 -1731.1 2292.92 C -1730.4 2292.79 -1729.7 2292.55 -1729.6 2292.39 C -1729.6 2292.37 -1729.6 2292.32 -1729.6 2292.25 C -1729.6 2292.19 -1729.7 2292.1 -1729.8 2291.99 C -1729.9 2291.78 -1730.1 2291.5 -1730.4 2291.16 C -1730.9 2290.48 -1731.7 2289.59 -1732.6 2288.65 C -1736 2285.12 -1739.7 2280.59 -1741.8 2277.42 C -1743 2275.59 -1746.4 2269.79 -1746.4 2269.52 C -1746.4 2269.45 -1747.1 2267.95 -1747.9 2266.22 C -1748.8 2264.52 -1749.4 2262.95 -1749.4 2262.79 C -1749.4 2262.62 -1750 2261.12 -1750.6 2259.45 C -1753.4 2252.22 -1757.9 2236.22 -1758.3 2231.75 C -1758.4 2230.92 -1758.7 2229.05 -1758.9 2227.59 C -1760.4 2219.35 -1760.5 2202.55 -1759.2 2190.42 C -1756.3 2163.69 -1755.9 2153.85 -1757.6 2142.09 C -1757.8 2140.15 -1758.2 2137.42 -1758.4 2135.99 C -1758.7 2133.62 -1759.2 2131.65 -1761.1 2124.25 C -1761.4 2122.95 -1762.1 2120.79 -1762.6 2119.42 C -1763.1 2118.05 -1763.8 2116.09 -1764.1 2115.09 C -1765.6 2110.65 -1770.6 2099.59 -1773.5 2094.42 C -1773.9 2093.79 -1774.7 2092.36 -1775.3 2091.26 C -1775.8 2090.16 -1777 2088.26 -1777.7 2086.99 C -1778.5 2085.76 -1779.1 2084.69 -1779.1 2084.59 C -1779.1 2084.29 -1788 2070.36 -1790.9 2066.09 C -1791.2 2065.62 -1792.2 2064.19 -1793 2062.92 C -1793.9 2061.62 -1795 2060.05 -1795.4 2059.42 C -1795.9 2058.79 -1796.4 2057.99 -1796.6 2057.69 C -1796.8 2057.39 -1797.9 2055.66 -1799.2 2053.86 C -1803.4 2047.62 -1810.1 2037.65 -1810.1 2037.52 C -1810.1 2037.42 -1810.8 2036.36 -1811.6 2035.12 C -1814.1 2031.15 -1814.7 2029.86 -1815.3 2027.02 C -1816 2023.62 -1815.8 2020.42 -1814.7 2017.39 C -1813.4 2013.95 -1812.9 2013.22 -1810.2 2010.49 C -1808 2008.36 -1807 2007.62 -1804.1 2006.22 C -1802.2 2005.29 -1800 2004.36 -1799.3 2004.15 C -1796.6 2003.39 -1793.3 2002.69 -1791.3 2002.45 C -1788.3 2002.06 -1780 2002.06 -1776.6 2002.42 Z M -1720.4 2305.12 L -1720.4 2305.12 C -1720.4 2305.12 -1720.3 2305.11 -1720.3 2305.12 C -1720.3 2305.12 -1720.3 2305.13 -1720.3 2305.14 C -1720.3 2305.15 -1720.3 2305.18 -1720.2 2305.21 C -1720.2 2305.28 -1720.1 2305.38 -1720 2305.51 C -1719.9 2305.76 -1719.7 2306.12 -1719.5 2306.52 C -1718.5 2308.72 -1714.6 2314.22 -1711.4 2317.95 C -1708.4 2321.42 -1700.4 2329.15 -1696.3 2332.62 C -1690.8 2337.15 -1689.7 2338.09 -1687.6 2339.75 C -1686.5 2340.59 -1685.2 2341.65 -1684.6 2342.12 C -1679.9 2345.99 -1671.7 2351.05 -1666.3 2353.42 C -1661.7 2355.39 -1661.4 2355.49 -1657.1 2356.59 C -1653.8 2357.42 -1653.3 2357.49 -1648.8 2357.32 C -1643.6 2357.12 -1641.2 2356.62 -1636.6 2354.65 C -1635.5 2354.22 -1633.9 2353.72 -1633.1 2353.59 C -1628.8 2352.92 -1626.4 2352.05 -1618.5 2348.39 C -1617 2347.68 -1615.6 2347.09 -1615.4 2347.09 C -1615.2 2347.09 -1611.7 2345.45 -1604.8 2342.22 C -1603.2 2341.42 -1601.7 2340.75 -1601.6 2340.75 C -1601.2 2340.75 -1582.7 2331.62 -1577.2 2328.72 C -1575.8 2327.95 -1573.6 2326.82 -1572.5 2326.18 C -1571.3 2325.59 -1570.2 2324.95 -1570 2324.79 L -1570 2324.78 L -1570 2324.78 C -1569.8 2324.65 -1568.8 2324.05 -1567.8 2323.52 C -1566.8 2322.95 -1565.4 2322.18 -1564.8 2321.78 C -1558.6 2317.89 -1555.5 2315.82 -1551.7 2313.25 C -1549.3 2311.59 -1547.2 2310.25 -1547 2310.25 C -1546.9 2310.25 -1546.7 2310.56 -1546.4 2311.06 C -1546 2311.55 -1545.6 2312.24 -1545.2 2312.99 C -1544.1 2314.89 -1542.4 2317.02 -1539.7 2319.82 C -1530.4 2329.72 -1528.5 2333.39 -1528.2 2342.95 C -1528 2347.02 -1528.1 2347.99 -1528.7 2350.28 C -1529.6 2353.39 -1530.2 2354.59 -1532.6 2358.49 C -1538.8 2368.45 -1544.6 2372.62 -1557.1 2376.09 C -1557.9 2376.32 -1559.7 2376.92 -1561.1 2377.42 C -1562.5 2377.92 -1564.4 2378.52 -1565.4 2378.75 C -1566.4 2378.99 -1568.4 2379.55 -1569.8 2379.99 C -1573.2 2381.09 -1573.9 2381.28 -1576.8 2382.05 C -1578.1 2382.45 -1580.3 2383.05 -1581.6 2383.42 C -1584.5 2384.28 -1596.5 2387.42 -1598.3 2387.78 C -1599 2387.95 -1600.3 2388.22 -1601.1 2388.39 C -1601.9 2388.55 -1604.7 2389.15 -1607.3 2389.75 C -1609.8 2390.32 -1612.8 2390.95 -1613.8 2391.09 C -1614.8 2391.25 -1617.6 2391.78 -1620.1 2392.25 C -1624.6 2393.15 -1627.1 2393.52 -1631.9 2394.09 C -1633.4 2394.25 -1635.5 2394.55 -1636.6 2394.72 C -1648.5 2396.62 -1659.4 2397.42 -1665.4 2396.78 C -1667.5 2396.59 -1670 2396.18 -1670.9 2395.95 C -1672.9 2395.42 -1676.2 2393.85 -1677.7 2392.72 C -1679.5 2391.42 -1681.6 2388.15 -1682.7 2384.92 C -1684.6 2379.65 -1684.8 2377.99 -1685 2365.75 C -1685 2359.62 -1685.1 2354.57 -1685.1 2354.42 C -1685.1 2354.4 -1685.1 2354.38 -1685.1 2354.38 C -1685.1 2354.38 -1685.1 2354.38 -1685.1 2354.38 C -1685.1 2354.38 -1685.1 2354.39 -1685.1 2354.39 C -1685.2 2354.42 -1685.2 2354.47 -1685.2 2354.55 C -1685.3 2354.72 -1685.4 2355 -1685.5 2355.36 C -1685.8 2356.09 -1686.1 2357.16 -1686.5 2358.37 C -1687.3 2360.8 -1688.1 2363.8 -1688.6 2365.75 C -1690.3 2372.92 -1690.5 2374.72 -1690.4 2380.49 C -1690.3 2383.34 -1690.3 2384.77 -1690.5 2385.24 C -1690.6 2385.35 -1690.6 2385.4 -1690.7 2385.41 C -1690.8 2385.41 -1690.9 2385.36 -1691.1 2385.27 C -1691.3 2385.07 -1691.7 2384.69 -1692.1 2384.18 C -1693.9 2382.22 -1698.8 2376.02 -1699.5 2374.82 C -1699.9 2374.15 -1700.4 2373.42 -1700.6 2373.25 C -1701.1 2372.88 -1707.6 2363.15 -1711.7 2356.75 C -1713.1 2354.65 -1714.8 2351.95 -1715.6 2350.75 C -1717.4 2348.05 -1719.8 2344.25 -1720.6 2342.85 C -1721 2342.28 -1722 2340.72 -1722.9 2339.35 C -1725.1 2336.15 -1727.6 2331.25 -1728.3 2329.22 C -1728.9 2327.05 -1728.9 2322.18 -1728.2 2319.82 C -1727.5 2316.95 -1725.9 2313.34 -1724.3 2310.41 C -1722.8 2307.48 -1721.2 2305.24 -1720.4 2305.12 Z M -1716.5 2366.15 C -1715.5 2367.85 -1714.5 2369.38 -1714.4 2369.55 L -1714.4 2369.55 L -1714.4 2369.55 C -1713.8 2370.99 -1705.6 2382.75 -1703.7 2385.15 C -1703.3 2385.65 -1702.2 2386.95 -1701.3 2388.08 C -1699.8 2389.92 -1698.6 2391.05 -1694.3 2395.22 C -1692.6 2396.89 -1687.5 2400.25 -1684.7 2401.65 C -1679.5 2404.25 -1676.3 2405.18 -1667.8 2406.49 C -1655 2408.45 -1634 2406.72 -1614.1 2402.09 C -1606.1 2400.18 -1599.8 2398.45 -1593 2396.22 C -1591.2 2395.62 -1590.3 2395.36 -1589.9 2395.54 C -1589.9 2395.59 -1589.8 2395.66 -1589.8 2395.77 C -1589.8 2395.87 -1589.9 2396.01 -1590 2396.18 C -1590.1 2396.51 -1590.4 2396.98 -1590.8 2397.59 C -1592.8 2400.55 -1594.3 2402.42 -1596.8 2404.59 C -1598 2405.65 -1599.5 2407.12 -1600.2 2407.82 C -1600.9 2408.52 -1601.6 2409.08 -1601.7 2409.08 C -1601.9 2409.08 -1602.6 2409.65 -1603.3 2410.32 C -1604.1 2411.02 -1605.3 2412.18 -1606.1 2412.92 C -1607 2413.65 -1609.3 2415.85 -1611.4 2417.82 C -1613.4 2419.78 -1615.5 2421.62 -1616.1 2421.92 C -1616.6 2422.18 -1618.2 2422.68 -1619.5 2422.98 C -1621.6 2423.45 -1624.3 2423.52 -1638.1 2423.52 C -1664.5 2423.52 -1689.5 2421.92 -1696.2 2419.82 C -1698.7 2419.05 -1701.8 2416.82 -1702.7 2415.22 C -1704.2 2412.45 -1705.6 2407.22 -1706.8 2399.99 C -1707 2398.49 -1707.3 2397.44 -1707.5 2396.82 C -1707.7 2396.51 -1707.8 2396.3 -1707.9 2396.2 C -1708 2396.15 -1708.1 2396.13 -1708.2 2396.13 C -1708.2 2396.14 -1708.3 2396.17 -1708.4 2396.22 C -1708.9 2396.66 -1709.4 2398.78 -1709.8 2402.49 C -1709.9 2403.57 -1710 2404.55 -1710.2 2405.26 C -1710.2 2405.62 -1710.3 2405.91 -1710.3 2406.11 C -1710.3 2406.21 -1710.4 2406.28 -1710.4 2406.34 C -1710.4 2406.36 -1710.4 2406.38 -1710.4 2406.4 C -1710.4 2406.4 -1710.4 2406.39 -1710.4 2406.39 L -1710.4 2406.42 L -1710.4 2406.42 C -1710.5 2406.4 -1710.8 2406.14 -1711.1 2405.7 C -1711.4 2405.26 -1711.8 2404.64 -1712.2 2403.93 C -1713.1 2402.52 -1714.1 2400.77 -1714.8 2399.42 C -1716.9 2395.05 -1719 2388.39 -1720.5 2381.25 C -1720.7 2380.15 -1721.1 2378.42 -1721.3 2377.42 C -1722.1 2374.35 -1721.9 2369.85 -1720.9 2366.85 C -1720.4 2365.25 -1720 2364.31 -1719.8 2363.77 C -1719.5 2363.23 -1719.3 2363.09 -1719 2363.09 C -1718.7 2363.09 -1717.6 2364.45 -1716.5 2366.15 Z" style="stroke: rgb(186, 218, 85); fill: rgb(4, 69, 191); stroke-width: 0.033;" fill="#000000" stroke="none"/>
</svg>